<svg id="Capa_1" data-name="Capa 1" xmlns="http://www.w3.org/2000/svg" viewBox="0 0 300 300"><defs><style>.cls-1{fill:#fff;}.cls-2{fill:#262626;fill-rule:evenodd;}</style></defs><circle class="cls-1" cx="150" cy="150" r="150"/><path class="cls-2" d="M150,38.89A111.11,111.11,0,1,0,261.11,150,111.14,111.14,0,0,0,150,38.89Zm73.39,51.22a94.41,94.41,0,0,1,21.45,59.05c-3.13-.61-34.46-7-66-3-.72-1.56-1.32-3.25-2.05-4.94-1.92-4.58-4.09-9.28-6.26-13.74C205.43,113.24,221.34,92.76,223.39,90.11ZM150,55.28a94.72,94.72,0,0,1,62.91,23.86c-1.69,2.41-16,21.57-49.77,34.22a512.43,512.43,0,0,0-35.43-55.55A96.34,96.34,0,0,1,150,55.28ZM109.63,64.2A598.58,598.58,0,0,1,144.82,119,356,356,0,0,1,57.09,130.6,95.31,95.31,0,0,1,109.63,64.2ZM55,150.12v-2.89c4.09.12,50.13.72,97.49-13.5,2.77,5.3,5.3,10.73,7.71,16.15-1.2.36-2.53.72-3.73,1.08-48.93,15.79-75,58.93-77.13,62.55A94.71,94.71,0,0,1,55,150.12ZM150,245a94.28,94.28,0,0,1-58.21-20c1.69-3.5,21-40.61,74.48-59.29.24-.12.36-.12.6-.24a392.49,392.49,0,0,1,20.25,71.94A93.36,93.36,0,0,1,150,245Zm52.9-16.27a407.74,407.74,0,0,0-18.43-67.6c29.76-4.7,55.79,3,59.05,4.09A94.09,94.09,0,0,1,202.9,228.69Z"/></svg>