<svg id="Capa_1" data-name="Capa 1" xmlns="http://www.w3.org/2000/svg" viewBox="0 0 300 300"><defs><style>.cls-1{fill:#fff;}.cls-2{fill:#262626;}</style></defs><circle class="cls-1" cx="150" cy="150" r="150"/><path class="cls-2" d="M150,72.57c25.22,0,28.2.1,38.16.55,9.21.42,14.21,2,17.54,3.26A31.22,31.22,0,0,1,223.62,94.3c1.3,3.33,2.84,8.33,3.26,17.54.45,10,.55,12.94.55,38.16s-.1,28.2-.55,38.16c-.42,9.21-2,14.21-3.26,17.54a31.22,31.22,0,0,1-17.92,17.92c-3.33,1.3-8.33,2.84-17.54,3.26-9.95.45-12.94.55-38.16.55s-28.21-.1-38.16-.55c-9.21-.42-14.21-2-17.54-3.26A31.22,31.22,0,0,1,76.38,205.7c-1.3-3.33-2.84-8.33-3.26-17.54-.45-10-.55-12.94-.55-38.16s.1-28.2.55-38.16c.42-9.21,2-14.21,3.26-17.54A31.22,31.22,0,0,1,94.3,76.38c3.33-1.3,8.33-2.84,17.54-3.26,10-.45,12.94-.55,38.16-.55m0-17c-25.65,0-28.87.1-38.94.56s-16.92,2.06-22.92,4.39A48.36,48.36,0,0,0,60.51,88.14c-2.33,6-3.93,12.87-4.39,22.92s-.56,13.29-.56,38.94.1,28.87.56,38.94,2.06,16.92,4.39,22.92a48.36,48.36,0,0,0,27.63,27.63c6,2.33,12.87,3.93,22.92,4.39s13.29.56,38.94.56,28.87-.1,38.94-.56,16.92-2.06,22.92-4.39a48.36,48.36,0,0,0,27.63-27.63c2.33-6,3.93-12.87,4.39-22.92s.56-13.29.56-38.94-.1-28.87-.56-38.94-2.06-16.92-4.39-22.92a48.36,48.36,0,0,0-27.63-27.63c-6-2.33-12.87-3.93-22.92-4.39s-13.29-.56-38.94-.56Z"/><path class="cls-2" d="M150,101.5A48.5,48.5,0,1,0,198.5,150,48.51,48.51,0,0,0,150,101.5Zm0,80A31.48,31.48,0,1,1,181.48,150,31.47,31.47,0,0,1,150,181.48Z"/><circle class="cls-2" cx="200.41" cy="99.59" r="11.33"/></svg>