<svg id="Capa_1" data-name="Capa 1" xmlns="http://www.w3.org/2000/svg" xmlns:xlink="http://www.w3.org/1999/xlink" viewBox="0 0 300 300"><defs><style>.cls-1,.cls-2{fill-rule:evenodd;}.cls-1{fill:url(#Degradado_sin_nombre_60);}.cls-2{fill:url(#Degradado_sin_nombre_60-2);}</style><linearGradient id="Degradado_sin_nombre_60" x1="91.23" y1="220.43" x2="252.06" y2="414.01" gradientUnits="userSpaceOnUse"><stop offset="0" stop-color="#fff"/><stop offset="0.35" stop-color="#999"/><stop offset="0.5" stop-color="#fff"/><stop offset="0.65" stop-color="#999"/><stop offset="1" stop-color="#fff"/></linearGradient><linearGradient id="Degradado_sin_nombre_60-2" x1="178.86" y1="158.65" x2="56.01" y2="-94.5" xlink:href="#Degradado_sin_nombre_60"/></defs><path class="cls-1" d="M188.85,292.28c.93,2.51,1.25,7.72,1.25,7.72H64.68s0-5.26,1.12-7.91S70.21,287,70.21,287h.43a18.57,18.57,0,0,0,.5-1.8H71c-5.23-6.81-8.38-17-7.62-27.43s8.38-21,13.53-29.17l.21-.78c-.19-.62.05-.47,0-1.1-1.5-.38-4.28-2.83-3.48-5.83a6.4,6.4,0,0,1,5.93-5h.65l.24-.8-.05-.82c5.07-11.59,9.75-21.11,13.79-31.83,31.21,29.74,82.2,31.87,82.2,31.87l.05.55,0,1h1.06a6.42,6.42,0,0,1,6,5c.87,3.27-2.45,5.89-3.84,5.93l-.68.68c.07.63.55.7.51,1.5,5.87,8.9,11.46,20.34,12.14,30.81A36.59,36.59,0,0,1,184.63,284a18.62,18.62,0,0,1,.19,3.15c.7.65,3.21,3,4,5.09Z"/><path class="cls-2" d="M83.38,167.31C54.72,125,74.94,92,74.94,92c-4.68-1.39-15.74,2-15.74,2C72.3,46,120.91,6.25,174.94,22.06,176.33,14.08,199.36,0,199.36,0c-2.36,2.34-5.93,25.1-5.93,25.1,2.34-4.25,12.49-18.54,12.49-18.54-4.22,9.86,0,31,0,31C218.12,49.75,231.74,92,231.74,92l5.17,7.51c6.58,9.42,4.16,24.19-2.34,27.7-24.4,13.17-26.77-10.79-26.77-10.79-20.19-2.34-35.22-24.88-35.22-24.88-27.21,14.07-12.05,53.8-.3,69,15.09,19.57,4,51.19,4,51.19s-64.64-2.66-92.93-44.45Z"/></svg>