<svg id="Capa_1" data-name="Capa 1" xmlns="http://www.w3.org/2000/svg" viewBox="0 0 300 300"><defs><style>.cls-1{fill:#fff;}.cls-2{fill:#262626;}</style></defs><circle class="cls-1" cx="150" cy="150" r="150"/><path class="cls-2" d="M161.61,129.54c2.46-2.77,4.49-5.58,7-8a38.55,38.55,0,0,1,27.72-10.94,64.07,64.07,0,0,1,17.44,2.13c13,3.76,20.58,12.72,24.19,25.44,2.71,9.54,3.21,19.33,3.22,29.15,0,20.72-.06,41.45,0,62.17,0,1.94-.54,2.45-2.45,2.43q-16-.13-32,0c-1.88,0-2.28-.56-2.28-2.34q.09-29.56,0-59.15a53.14,53.14,0,0,0-1.72-14.68c-2.55-8.85-8.89-13.36-18.16-12.87-12.66.67-19.24,6.94-20.86,19.81a75.18,75.18,0,0,0-.56,9.25c0,19.17,0,38.35,0,57.52,0,1.92-.47,2.48-2.43,2.46q-16.12-.13-32.25,0c-1.73,0-2.22-.46-2.22-2.2q.08-56.94,0-113.89c0-1.88.61-2.32,2.39-2.3q15.31.1,30.63,0c1.88,0,2.36.59,2.32,2.37C161.54,120.46,161.61,125,161.61,129.54Z"/><path class="cls-2" d="M103.12,172.92c0,18.78,0,37.56,0,56.35,0,2.08-.51,2.71-2.67,2.69-10.67-.12-21.34-.09-32,0-1.71,0-2.23-.41-2.22-2.18q.08-57,0-114.08c0-1.57.38-2.13,2.06-2.12,10.82.07,21.65.09,32.47,0,2.08,0,2.37.78,2.36,2.56Q103.07,144.52,103.12,172.92Z"/><path class="cls-2" d="M106.06,75.87a21.32,21.32,0,1,1-21.28-21.2A21.39,21.39,0,0,1,106.06,75.87Z"/></svg>