<svg id="Capa_1" data-name="Capa 1" xmlns="http://www.w3.org/2000/svg" xmlns:xlink="http://www.w3.org/1999/xlink" viewBox="0 0 1132 1080"><defs><style>.cls-1{fill:#fff;}.cls-2{fill:#fef4eb;}.cls-3{fill:#444;}.cls-4{mask:url(#mask);}</style><mask id="mask" x="46.19" y="45.49" width="1050.62" height="985.16" maskUnits="userSpaceOnUse"><g id="path-1-inside-1_3_207" data-name="path-1-inside-1 3 207"><path class="cls-1" d="M47.83,47.12H178.75V169.86H47.83Z"/><path class="cls-1" d="M309.67,47.12H440.58V169.86H309.67Z"/><path class="cls-1" d="M571.5,47.12H702.42V169.86H571.5Z"/><path class="cls-1" d="M833.34,47.12H964.26V169.86H833.34Z"/><path class="cls-1" d="M964.26,169.86h130.91V292.59H964.26Z"/><path class="cls-1" d="M702.42,169.86H833.34V292.59H702.42Z"/><path class="cls-1" d="M440.58,169.86H571.5V292.59H440.58Z"/><path class="cls-1" d="M178.75,169.86H309.67V292.59H178.75Z"/><path class="cls-1" d="M309.67,292.59H440.58V415.33H309.67Z"/><path class="cls-1" d="M571.5,292.59H702.42V415.33H571.5Z"/><path class="cls-1" d="M833.34,292.59H964.26V415.33H833.34Z"/><path class="cls-1" d="M964.26,415.33h130.91V538.07H964.26Z"/><path class="cls-1" d="M702.42,415.33H833.34V538.07H702.42Z"/><path class="cls-1" d="M440.58,415.33H571.5V538.07H440.58Z"/><path class="cls-1" d="M178.75,415.33H309.67V538.07H178.75Z"/><path class="cls-1" d="M309.67,538.07H440.58V660.8H309.67Z"/><path class="cls-1" d="M571.5,538.07H702.42V660.8H571.5Z"/><path class="cls-1" d="M833.34,538.07H964.26V660.8H833.34Z"/><path class="cls-1" d="M964.26,660.8h130.91V783.54H964.26Z"/><path class="cls-1" d="M702.42,660.8H833.34V783.54H702.42Z"/><path class="cls-1" d="M440.58,660.8H571.5V783.54H440.58Z"/><path class="cls-1" d="M178.75,660.8H309.67V783.54H178.75Z"/><path class="cls-1" d="M309.67,783.54H440.58V906.27H309.67Z"/><path class="cls-1" d="M571.5,783.54H702.42V906.27H571.5Z"/><path class="cls-1" d="M833.34,783.54H964.26V906.27H833.34Z"/><path class="cls-1" d="M964.26,906.27h130.91V1029H964.26Z"/><path class="cls-1" d="M702.42,906.27H833.34V1029H702.42Z"/><path class="cls-1" d="M440.58,906.27H571.5V1029H440.58Z"/><path class="cls-1" d="M178.75,906.27H309.67V1029H178.75Z"/><path class="cls-1" d="M47.83,169.86H178.75V292.59H47.83Z"/><path class="cls-1" d="M47.83,292.59H178.75V415.33H47.83Z"/><path class="cls-1" d="M47.83,415.33H178.75V538.07H47.83Z"/><path class="cls-1" d="M178.75,47.12H309.67V169.86H178.75V47.12Z"/><path class="cls-1" d="M178.75,292.59H309.67V415.33H178.75Z"/><path class="cls-1" d="M178.75,538.07H309.67V660.8H178.75Z"/><path class="cls-1" d="M178.75,783.54H309.67V906.27H178.75Z"/><path class="cls-1" d="M309.67,906.27H440.58V1029H309.67Z"/><path class="cls-1" d="M309.67,660.8H440.58V783.54H309.67Z"/><path class="cls-1" d="M309.67,415.33H440.58V538.07H309.67Z"/><path class="cls-1" d="M309.67,169.86H440.58V292.59H309.67Z"/><path class="cls-1" d="M440.58,47.12H571.5V169.86H440.58Z"/><path class="cls-1" d="M440.58,292.59H571.5V415.33H440.58Z"/><path class="cls-1" d="M440.58,538.07H571.5V660.8H440.58Z"/><path class="cls-1" d="M440.58,783.54H571.5V906.27H440.58Z"/><path class="cls-1" d="M571.5,906.27H702.42V1029H571.5Z"/><path class="cls-1" d="M571.5,660.8H702.42V783.54H571.5Z"/><path class="cls-1" d="M571.5,415.33H702.42V538.07H571.5Z"/><path class="cls-1" d="M571.5,169.86H702.42V292.59H571.5Z"/><path class="cls-1" d="M702.42,47.12H833.34V169.86H702.42Z"/><path class="cls-1" d="M702.42,292.59H833.34V415.33H702.42Z"/><path class="cls-1" d="M702.42,538.07H833.34V660.8H702.42Z"/><path class="cls-1" d="M702.42,783.54H833.34V906.27H702.42Z"/><path class="cls-1" d="M833.34,906.27H964.26V1029H833.34Z"/><path class="cls-1" d="M833.34,660.8H964.26V783.54H833.34Z"/><path class="cls-1" d="M833.34,415.33H964.26V538.07H833.34Z"/><path class="cls-1" d="M833.34,169.86H964.26V292.59H833.34Z"/><path class="cls-1" d="M964.26,47.12h130.91V169.86H964.26Z"/><path class="cls-1" d="M964.26,292.59h130.91V415.33H964.26Z"/><path class="cls-1" d="M964.26,538.07h130.91V660.8H964.26Z"/><path class="cls-1" d="M964.26,783.54h130.91V906.27H964.26Z"/><path class="cls-1" d="M47.83,538.07H178.75V660.8H47.83Z"/><path class="cls-1" d="M47.83,660.8H178.75V783.54H47.83Z"/><path class="cls-1" d="M47.83,783.54H178.75V906.27H47.83Z"/><path class="cls-1" d="M47.83,906.27H178.75V1029H47.83Z"/></g></mask></defs><path class="cls-2" d="M47.83,47.12H178.75V169.86H47.83Z"/><path class="cls-2" d="M309.67,47.12H440.58V169.86H309.67Z"/><path class="cls-2" d="M571.5,47.12H702.42V169.86H571.5Z"/><path class="cls-2" d="M833.34,47.12H964.26V169.86H833.34Z"/><path class="cls-2" d="M964.26,169.86h130.91V292.59H964.26Z"/><path class="cls-2" d="M702.42,169.86H833.34V292.59H702.42Z"/><path class="cls-2" d="M440.58,169.86H571.5V292.59H440.58Z"/><path class="cls-2" d="M178.75,169.86H309.67V292.59H178.75Z"/><path class="cls-2" d="M309.67,292.59H440.58V415.33H309.67Z"/><path class="cls-2" d="M571.5,292.59H702.42V415.33H571.5Z"/><path class="cls-2" d="M833.34,292.59H964.26V415.33H833.34Z"/><path class="cls-2" d="M964.26,415.33h130.91V538.07H964.26Z"/><path class="cls-2" d="M702.42,415.33H833.34V538.07H702.42Z"/><path class="cls-2" d="M440.58,415.33H571.5V538.07H440.58Z"/><path class="cls-2" d="M178.75,415.33H309.67V538.07H178.75Z"/><path class="cls-2" d="M309.67,538.07H440.58V660.8H309.67Z"/><path class="cls-2" d="M571.5,538.07H702.42V660.8H571.5Z"/><path class="cls-2" d="M833.34,538.07H964.26V660.8H833.34Z"/><path class="cls-2" d="M964.26,660.8h130.91V783.54H964.26Z"/><path class="cls-2" d="M702.42,660.8H833.34V783.54H702.42Z"/><path class="cls-2" d="M440.58,660.8H571.5V783.54H440.58Z"/><path class="cls-2" d="M178.75,660.8H309.67V783.54H178.75Z"/><path class="cls-2" d="M309.67,783.54H440.58V906.27H309.67Z"/><path class="cls-2" d="M571.5,783.54H702.42V906.27H571.5Z"/><path class="cls-2" d="M833.34,783.54H964.26V906.27H833.34Z"/><path class="cls-2" d="M964.26,906.27h130.91V1029H964.26Z"/><path class="cls-2" d="M702.42,906.27H833.34V1029H702.42Z"/><path class="cls-2" d="M440.58,906.27H571.5V1029H440.58Z"/><path class="cls-2" d="M178.75,906.27H309.67V1029H178.75Z"/><path class="cls-3" d="M47.83,169.86H178.75V292.59H47.83Z"/><path class="cls-2" d="M47.83,292.59H178.75V415.33H47.83Z"/><path class="cls-3" d="M47.83,415.33H178.75V538.07H47.83Z"/><path class="cls-3" d="M178.75,47.12H309.67V169.86H178.75V47.12Z"/><path class="cls-3" d="M178.75,292.59H309.67V415.33H178.75Z"/><path class="cls-3" d="M178.75,538.07H309.67V660.8H178.75Z"/><path class="cls-3" d="M178.75,783.54H309.67V906.27H178.75Z"/><path class="cls-3" d="M309.67,906.27H440.58V1029H309.67Z"/><path class="cls-3" d="M309.67,660.8H440.58V783.54H309.67Z"/><path class="cls-3" d="M309.67,415.33H440.58V538.07H309.67Z"/><path class="cls-3" d="M309.67,169.86H440.58V292.59H309.67Z"/><path class="cls-3" d="M440.58,47.12H571.5V169.86H440.58Z"/><path class="cls-3" d="M440.58,292.59H571.5V415.33H440.58Z"/><path class="cls-3" d="M440.58,538.07H571.5V660.8H440.58Z"/><path class="cls-3" d="M440.58,783.54H571.5V906.27H440.58Z"/><path class="cls-3" d="M571.5,906.27H702.42V1029H571.5Z"/><path class="cls-3" d="M571.5,660.8H702.42V783.54H571.5Z"/><path class="cls-3" d="M571.5,415.33H702.42V538.07H571.5Z"/><path class="cls-3" d="M571.5,169.86H702.42V292.59H571.5Z"/><path class="cls-3" d="M702.42,47.12H833.34V169.86H702.42Z"/><path class="cls-3" d="M702.42,292.59H833.34V415.33H702.42Z"/><path class="cls-3" d="M702.42,538.07H833.34V660.8H702.42Z"/><path class="cls-3" d="M702.42,783.54H833.34V906.27H702.42Z"/><path class="cls-3" d="M833.34,906.27H964.26V1029H833.34Z"/><path class="cls-3" d="M833.34,660.8H964.26V783.54H833.34Z"/><path class="cls-3" d="M833.34,415.33H964.26V538.07H833.34Z"/><path class="cls-3" d="M833.34,169.86H964.26V292.59H833.34Z"/><path class="cls-3" d="M964.26,47.12h130.91V169.86H964.26Z"/><path class="cls-3" d="M964.26,292.59h130.91V415.33H964.26Z"/><path class="cls-3" d="M964.26,538.07h130.91V660.8H964.26Z"/><path class="cls-3" d="M964.26,783.54h130.91V906.27H964.26Z"/><path class="cls-2" d="M47.83,538.07H178.75V660.8H47.83Z"/><path class="cls-3" d="M47.83,660.8H178.75V783.54H47.83Z"/><path class="cls-2" d="M47.83,783.54H178.75V906.27H47.83Z"/><path class="cls-3" d="M47.83,906.27H178.75V1029H47.83Z"/><g class="cls-4"><path class="cls-3" d="M178.75,169H47.83v1.64H178.75Zm261-121.92V169.86h1.63V47.12ZM440.58,169H309.67v1.64H440.58Zm-130.1.82V47.12h-1.63V169.86ZM701.6,47.12V169.86h1.64V47.12ZM702.42,169H571.5v1.64H702.42Zm-130.1.82V47.12h-1.64V169.86ZM963.44,47.12V169.86h1.63V47.12ZM964.26,169H833.34v1.64H964.26Zm-130.1.82V47.12h-1.64V169.86Zm130.1.82h130.91V169H964.26Zm130.91,121.1H964.26v1.63h130.91Zm-130.1.81V169.86h-1.63V292.59ZM702.42,170.68H833.34V169H702.42Zm130.1-.82V292.59h1.64V169.86Zm.82,121.92H702.42v1.63H833.34Zm-130.1.81V169.86H701.6V292.59ZM440.58,170.68H571.5V169H440.58Zm130.1-.82V292.59h1.64V169.86Zm.82,121.92H440.58v1.63H571.5Zm-130.1.81V169.86h-1.63V292.59ZM178.75,170.68H309.67V169H178.75Zm130.1-.82V292.59h1.63V169.86Zm.82,121.92H178.75v1.63H309.67Zm-130.1.81V169.86h-1.64V292.59Zm130.1.82H440.58v-1.63H309.67Zm130.1-.82V415.33h1.63V292.59Zm.81,121.92H309.67v1.64H440.58Zm-130.1.82V292.59h-1.63V415.33Zm261-121.92H702.42v-1.63H571.5Zm130.1-.82V415.33h1.64V292.59Zm.82,121.92H571.5v1.64H702.42Zm-130.1.82V292.59h-1.64V415.33Zm261-121.92H964.26v-1.63H833.34Zm130.1-.82V415.33h1.63V292.59Zm.82,121.92H833.34v1.64H964.26Zm-130.1.82V292.59h-1.64V415.33Zm130.1.82h130.91v-1.64H964.26Zm130.91,121.1H964.26v1.63h130.91Zm-130.1.82V415.33h-1.63V538.07ZM702.42,416.15H833.34v-1.64H702.42Zm130.1-.82V538.07h1.64V415.33Zm.82,121.92H702.42v1.63H833.34Zm-130.1.82V415.33H701.6V538.07ZM440.58,416.15H571.5v-1.64H440.58Zm130.1-.82V538.07h1.64V415.33Zm.82,121.92H440.58v1.63H571.5Zm-130.1.82V415.33h-1.63V538.07ZM178.75,416.15H309.67v-1.64H178.75Zm130.1-.82V538.07h1.63V415.33Zm.82,121.92H178.75v1.63H309.67Zm-130.1.82V415.33h-1.64V538.07Zm130.1.81H440.58v-1.63H309.67Zm130.1-.81V660.8h1.63V538.07ZM440.58,660H309.67v1.64H440.58Zm-130.1.82V538.07h-1.63V660.8Zm261-121.92H702.42v-1.63H571.5Zm130.1-.81V660.8h1.64V538.07ZM702.42,660H571.5v1.64H702.42Zm-130.1.82V538.07h-1.64V660.8Zm261-121.92H964.26v-1.63H833.34Zm130.1-.81V660.8h1.63V538.07ZM964.26,660H833.34v1.64H964.26Zm-130.1.82V538.07h-1.64V660.8Zm130.1.82h130.91V660H964.26Zm130.91,121.1H964.26v1.64h130.91Zm-130.1.82V660.8h-1.63V783.54ZM702.42,661.62H833.34V660H702.42Zm130.1-.82V783.54h1.64V660.8Zm.82,121.92H702.42v1.64H833.34Zm-130.1.82V660.8H701.6V783.54ZM440.58,661.62H571.5V660H440.58Zm130.1-.82V783.54h1.64V660.8Zm.82,121.92H440.58v1.64H571.5Zm-130.1.82V660.8h-1.63V783.54ZM178.75,661.62H309.67V660H178.75Zm130.1-.82V783.54h1.63V660.8Zm.82,121.92H178.75v1.64H309.67Zm-130.1.82V660.8h-1.64V783.54Zm130.1.82H440.58v-1.64H309.67Zm130.1-.82V906.27h1.63V783.54Zm.81,121.92H309.67v1.63H440.58Zm-130.1.81V783.54h-1.63V906.27Zm261-121.91H702.42v-1.64H571.5Zm130.1-.82V906.27h1.64V783.54Zm.82,121.92H571.5v1.63H702.42Zm-130.1.81V783.54h-1.64V906.27Zm261-121.91H964.26v-1.64H833.34Zm130.1-.82V906.27h1.63V783.54Zm.82,121.92H833.34v1.63H964.26Zm-130.1.81V783.54h-1.64V906.27Zm130.1.82h130.91v-1.63H964.26Zm.81,121.92V906.27h-1.63V1029ZM702.42,907.09H833.34v-1.63H702.42Zm130.1-.82V1029h1.64V906.27ZM703.24,1029V906.27H701.6V1029ZM440.58,907.09H571.5v-1.63H440.58Zm130.1-.82V1029h1.64V906.27ZM441.4,1029V906.27h-1.63V1029ZM178.75,907.09H309.67v-1.63H178.75Zm130.1-.82V1029h1.63V906.27ZM179.57,1029V906.27h-1.64V1029Zm-.82-737.23H47.83v1.63H178.75Zm-.82.81V415.33h1.64V292.59Zm.82,121.92H47.83v1.64H178.75Zm0,122.74H47.83v1.63H178.75Zm.82,123.55V538.07h-1.64V660.8Zm0,245.47V783.54h-1.64V906.27ZM178.75,660H47.83v1.64H178.75Zm0,122.74H47.83v1.64H178.75Zm0,122.74H47.83v1.63H178.75Zm-.82-858.34v61.37h1.64V47.12Zm0,61.37v61.37h1.64V108.49ZM47.83,47.12V45.49H46.19v1.63Zm130.92,0v0ZM47.83,169.86h0ZM309.67,47.12v0ZM1095.17,1029v1.64h1.64V1029ZM47.83,415.33h0Zm0,122.74h0ZM1095.17,47.12h1.64V45.49h-1.64ZM47.83,660.8h0Zm0,122.74h0Zm0,122.73h0Zm0,122.74H46.19v1.64h1.64Zm0-980.25H178.75V45.49H47.83Zm1.64,121.1V47.12H46.19V169.86Zm260.2-121.1H440.58V45.49H309.67Zm261.83,0H702.42V45.49H571.5Zm261.84,0H964.26V45.49H833.34Zm260.2,121.1V292.59h3.27V169.86Zm0,245.47V538.07h3.27V415.33Zm0,245.47V783.54h3.27V660.8Zm0,245.47V1029h3.27V906.27Zm1.63,121.1H964.26v3.28h130.91Zm-261.83,0H702.42v3.28H833.34Zm-261.84,0H440.58v3.28H571.5Zm-261.83,0H178.75v3.28H309.67ZM49.47,292.59V169.86H46.19V292.59Zm0,122.74V292.59H46.19V415.33Zm0,122.74V415.33H46.19V538.07ZM178.75,48.76H309.67V45.49H178.75Zm261.83,978.61H309.67v3.28H440.58Zm0-978.61H571.5V45.49H440.58Zm261.84,978.61H571.5v3.28H702.42Zm0-978.61H833.34V45.49H702.42Zm261.84,978.61H833.34v3.28H964.26Zm0-978.61h130.91V45.49H964.26Zm129.28-1.64V169.86h3.27V47.12Zm0,245.47V415.33h3.27V292.59Zm0,245.48V660.8h3.27V538.07Zm0,245.47V906.27h3.27V783.54ZM49.47,660.8V538.07H46.19V660.8Zm0,122.74V660.8H46.19V783.54Zm0,122.73V783.54H46.19V906.27Zm129.28,121.1H47.83v3.28H178.75ZM49.47,1029V906.27H46.19V1029Z"/></g><path d="M104.92,19.3H102.5l7-19h2.38l7,19h-2.42l-5.69-16h-.15Zm.89-7.44h9.75v2.05h-9.75Z"/><path d="M7.4,98.45v19H5.1V100.87H5L.33,104v-2.34L5.1,98.45Z"/><path d="M1125.11,106.63v19h-2.3V109.05h-.11l-4.65,3.09v-2.35l4.76-3.16Z"/><path d="M.71,240.23v-1.68L7,231.67c.74-.8,1.35-1.5,1.82-2.1a7.24,7.24,0,0,0,1.06-1.69,4,4,0,0,0,.36-1.67,3,3,0,0,0-.49-1.74,3.14,3.14,0,0,0-1.3-1.14,4.3,4.3,0,0,0-1.86-.4,3.88,3.88,0,0,0-1.91.46,3.16,3.16,0,0,0-1.26,1.25,4,4,0,0,0-.43,1.9H.78a5.61,5.61,0,0,1,.77-2.94,5.45,5.45,0,0,1,2.1-2,6.39,6.39,0,0,1,3-.7,6.08,6.08,0,0,1,3,.7,5.26,5.26,0,0,1,2,1.91,5,5,0,0,1,.74,2.67,5.61,5.61,0,0,1-.39,2,8.89,8.89,0,0,1-1.3,2.22,37,37,0,0,1-2.55,3L3.87,238v.15h8.85v2Z"/><path d="M1118.42,248.41v-1.67l6.28-6.88c.74-.81,1.35-1.51,1.83-2.11a7.59,7.59,0,0,0,1.06-1.69,4.17,4.17,0,0,0,.35-1.67,3.11,3.11,0,0,0-.48-1.74,3.2,3.2,0,0,0-1.3-1.14,4.36,4.36,0,0,0-1.86-.39,3.92,3.92,0,0,0-1.92.45,3.1,3.1,0,0,0-1.25,1.26,3.83,3.83,0,0,0-.44,1.89h-2.2a5.52,5.52,0,0,1,.78-2.94,5.32,5.32,0,0,1,2.1-2,6.32,6.32,0,0,1,3-.7,6.09,6.09,0,0,1,3,.7,5.31,5.31,0,0,1,2,1.91,5,5,0,0,1,.74,2.67,5.81,5.81,0,0,1-.38,2.05,8.62,8.62,0,0,1-1.31,2.22,37,37,0,0,1-2.55,3l-4.28,4.58v.14h8.85v2Z"/><path d="M7.14,363.22a8.1,8.1,0,0,1-3.28-.63,5.56,5.56,0,0,1-2.28-1.76,4.68,4.68,0,0,1-.91-2.63H3a2.75,2.75,0,0,0,.63,1.59,3.82,3.82,0,0,0,1.46,1,5.39,5.39,0,0,0,2,.36,5.17,5.17,0,0,0,2.18-.43,3.62,3.62,0,0,0,1.49-1.19,3,3,0,0,0,.54-1.77,3.39,3.39,0,0,0-.52-1.85,3.44,3.44,0,0,0-1.53-1.26,5.82,5.82,0,0,0-2.45-.46H5.28v-2H6.81a4.62,4.62,0,0,0,2-.41,3.28,3.28,0,0,0,1.34-1.15,3.1,3.1,0,0,0,.5-1.75,3.29,3.29,0,0,0-.43-1.69A3,3,0,0,0,9,346.07a3.85,3.85,0,0,0-1.82-.4,4.82,4.82,0,0,0-1.86.36,3.45,3.45,0,0,0-1.41,1,2.68,2.68,0,0,0-.6,1.62H1.08a4.57,4.57,0,0,1,.9-2.62,5.61,5.61,0,0,1,2.21-1.77,7.21,7.21,0,0,1,3-.63,6.06,6.06,0,0,1,3,.72,5,5,0,0,1,1.94,1.86,5,5,0,0,1,.68,2.52A4.43,4.43,0,0,1,12,351.5a4.29,4.29,0,0,1-2.28,1.57v.15a4.42,4.42,0,0,1,2.82,1.53,4.6,4.6,0,0,1,1,3,4.84,4.84,0,0,1-.85,2.79,5.82,5.82,0,0,1-2.29,1.94A7.47,7.47,0,0,1,7.14,363.22Z"/><path d="M1124.85,371.41a8.13,8.13,0,0,1-3.28-.64,5.67,5.67,0,0,1-2.28-1.75,4.82,4.82,0,0,1-.91-2.64h2.35a2.75,2.75,0,0,0,.63,1.59,3.65,3.65,0,0,0,1.46,1,5.35,5.35,0,0,0,2,.36,5.13,5.13,0,0,0,2.17-.43,3.48,3.48,0,0,0,1.49-1.19A3,3,0,0,0,1129,366a3.34,3.34,0,0,0-.52-1.86,3.5,3.5,0,0,0-1.53-1.26,5.92,5.92,0,0,0-2.45-.45H1123v-2.05h1.53a4.59,4.59,0,0,0,2-.41,3.18,3.18,0,0,0,1.35-1.15,3.09,3.09,0,0,0,.49-1.75,3.13,3.13,0,0,0-.43-1.68,2.92,2.92,0,0,0-1.21-1.12,3.85,3.85,0,0,0-1.82-.4,4.89,4.89,0,0,0-1.86.36,3.45,3.45,0,0,0-1.41,1,2.63,2.63,0,0,0-.6,1.61h-2.23a4.6,4.6,0,0,1,.9-2.62,5.8,5.8,0,0,1,2.22-1.77,7.13,7.13,0,0,1,3-.63,6,6,0,0,1,3,.72,5,5,0,0,1,1.94,1.87,4.81,4.81,0,0,1,.68,2.51,4.48,4.48,0,0,1-.84,2.74,4.27,4.27,0,0,1-2.28,1.57v.15a4.44,4.44,0,0,1,2.82,1.54,4.63,4.63,0,0,1,1,3,4.76,4.76,0,0,1-.85,2.78,5.74,5.74,0,0,1-2.29,1.94A7.41,7.41,0,0,1,1124.85,371.41Z"/><path d="M.26,481.79V479.9l8.37-13.24H10v2.93H9.08l-6.33,10v.15H14v2Zm9,3.91v-19h2.2v19Z"/><path d="M1118,490v-1.9l8.37-13.24h1.38v2.94h-.93l-6.32,10v.15h11.27V490Zm9,3.9v-19h2.19v19Z"/><path d="M6.66,608.69A6.46,6.46,0,0,1,3.71,608a5.44,5.44,0,0,1-2.1-1.78,4.87,4.87,0,0,1-.87-2.59H3a3,3,0,0,0,1.17,2.14,3.88,3.88,0,0,0,2.51.84,3.9,3.9,0,0,0,3.52-2.06,4.48,4.48,0,0,0,.53-2.18,4.4,4.4,0,0,0-.55-2.22,4,4,0,0,0-1.48-1.56,4.26,4.26,0,0,0-2.17-.57,5.79,5.79,0,0,0-1.8.27A5.16,5.16,0,0,0,3.2,599L1,598.76l1.15-9.37h9.9v2.05h-8l-.67,5.61h.11A5.08,5.08,0,0,1,5,596.28,5.69,5.69,0,0,1,6.88,596a5.86,5.86,0,0,1,5.27,3.11,6.7,6.7,0,0,1,.79,3.29,6.42,6.42,0,0,1-.82,3.26,5.88,5.88,0,0,1-2.23,2.25A6.4,6.4,0,0,1,6.66,608.69Z"/><path d="M1124.37,616.88a6.62,6.62,0,0,1-2.95-.65,5.55,5.55,0,0,1-2.1-1.79,4.94,4.94,0,0,1-.86-2.58h2.23a3.1,3.1,0,0,0,1.17,2.14,4,4,0,0,0,2.51.83,3.89,3.89,0,0,0,2.08-.55,3.71,3.71,0,0,0,1.44-1.5,4.44,4.44,0,0,0,.53-2.19,4.5,4.5,0,0,0-.54-2.22,4,4,0,0,0-1.49-1.55,4.24,4.24,0,0,0-2.17-.58,5.68,5.68,0,0,0-1.79.27,4.88,4.88,0,0,0-1.52.7l-2.16-.26,1.16-9.38h9.89v2h-8l-.67,5.62h.11a5.09,5.09,0,0,1,1.47-.78,5.72,5.72,0,0,1,1.84-.3,5.85,5.85,0,0,1,5.28,3.1,6.81,6.81,0,0,1,.79,3.29,6.52,6.52,0,0,1-.82,3.26,6,6,0,0,1-2.23,2.25A6.45,6.45,0,0,1,1124.37,616.88Z"/><path d="M7,731.43A6.93,6.93,0,0,1,4.69,731a5.48,5.48,0,0,1-2.14-1.44A7.43,7.43,0,0,1,1,726.78a14,14,0,0,1-.58-4.39,19.44,19.44,0,0,1,.47-4.48,10.19,10.19,0,0,1,1.38-3.3,6.13,6.13,0,0,1,2.18-2,5.86,5.86,0,0,1,2.89-.7,6.09,6.09,0,0,1,2.84.64,5.4,5.4,0,0,1,2.05,1.77,6.14,6.14,0,0,1,1,2.61H11a4.15,4.15,0,0,0-1.23-2.13,3.41,3.41,0,0,0-2.41-.85,4,4,0,0,0-3.49,1.93,9.8,9.8,0,0,0-1.27,5.4h.15A5.3,5.3,0,0,1,4,719.89a5.53,5.53,0,0,1,1.6-.87,5.4,5.4,0,0,1,1.85-.31,5.69,5.69,0,0,1,3,.82,6,6,0,0,1,2.17,2.24,6.39,6.39,0,0,1,.82,3.26,6.7,6.7,0,0,1-.79,3.24,6,6,0,0,1-2.22,2.32A6.3,6.3,0,0,1,7,731.43Zm0-2a3.86,3.86,0,0,0,2.1-.58,4.21,4.21,0,0,0,1.48-1.57,4.52,4.52,0,0,0,.55-2.2,4.41,4.41,0,0,0-.53-2.14,4.16,4.16,0,0,0-1.44-1.56,3.88,3.88,0,0,0-2.09-.57,3.77,3.77,0,0,0-1.64.35,4.25,4.25,0,0,0-1.34.95,4.36,4.36,0,0,0-.89,1.38,4.13,4.13,0,0,0-.33,1.63,4.44,4.44,0,0,0,.53,2.12,4.32,4.32,0,0,0,1.47,1.59A3.89,3.89,0,0,0,7,729.38Z"/><path d="M1124.74,739.61a7.17,7.17,0,0,1-2.34-.44,5.79,5.79,0,0,1-2.14-1.44,7.55,7.55,0,0,1-1.55-2.77,14,14,0,0,1-.59-4.39,18.87,18.87,0,0,1,.48-4.48,10.06,10.06,0,0,1,1.37-3.3,6.13,6.13,0,0,1,2.18-2,5.89,5.89,0,0,1,2.89-.7,6.13,6.13,0,0,1,2.85.64,5.45,5.45,0,0,1,2,1.77,6,6,0,0,1,1,2.61h-2.27a4.29,4.29,0,0,0-1.22-2.13,3.43,3.43,0,0,0-2.42-.84,4,4,0,0,0-3.49,1.92,9.89,9.89,0,0,0-1.27,5.4h.15a5.92,5.92,0,0,1,1.24-1.35,5.59,5.59,0,0,1,1.59-.87,5.81,5.81,0,0,1,4.85.51,6.17,6.17,0,0,1,2.18,2.24,6.5,6.5,0,0,1,.81,3.27,6.69,6.69,0,0,1-.79,3.23,6.06,6.06,0,0,1-2.22,2.33A6.18,6.18,0,0,1,1124.74,739.61Zm0-2a3.87,3.87,0,0,0,2.1-.59,4.14,4.14,0,0,0,1.48-1.57,4.63,4.63,0,0,0,0-4.34,4.06,4.06,0,0,0-1.44-1.55,3.77,3.77,0,0,0-2.08-.58,4,4,0,0,0-1.65.35,4.36,4.36,0,0,0-1.34,1,4.47,4.47,0,0,0-.89,1.39,4,4,0,0,0-.33,1.62,4.41,4.41,0,0,0,.53,2.12,4.32,4.32,0,0,0,1.47,1.59A3.82,3.82,0,0,0,1124.74,737.57Z"/><path d="M1.3,853.91l8.52-16.85v-.15H0v-2H12.2V837L3.72,853.91Z"/><path d="M1119,862.09l8.52-16.85v-.15h-9.82v-2h12.2v2.15l-8.48,16.89Z"/><path d="M6.81,976.9a7.89,7.89,0,0,1-3.39-.68,5.59,5.59,0,0,1-2.28-1.88,4.86,4.86,0,0,1-.81-2.76,5.19,5.19,0,0,1,.48-2.23,4.8,4.8,0,0,1,1.32-1.72A4,4,0,0,1,4,966.75v-.11a3.71,3.71,0,0,1-2.18-1.54,4.95,4.95,0,0,1-.06-5.3,5.11,5.11,0,0,1,2-1.8,6.58,6.58,0,0,1,3-.66,6.41,6.41,0,0,1,3,.66,5.21,5.21,0,0,1,2.05,1.8,4.74,4.74,0,0,1,.76,2.6,4.69,4.69,0,0,1-.83,2.7,3.68,3.68,0,0,1-2.14,1.54v.11a4,4,0,0,1,1.86.88,5,5,0,0,1,1.32,1.72,5.36,5.36,0,0,1,.5,2.23,4.89,4.89,0,0,1-.84,2.76,5.46,5.46,0,0,1-2.28,1.88A7.68,7.68,0,0,1,6.81,976.9Zm0-2A5.44,5.44,0,0,0,9,974.44a3.42,3.42,0,0,0,1.45-1.18,3.24,3.24,0,0,0,.52-1.79,3.4,3.4,0,0,0-.56-1.9A3.69,3.69,0,0,0,9,968.26a4.74,4.74,0,0,0-2.14-.47,4.92,4.92,0,0,0-2.18.47,3.82,3.82,0,0,0-1.5,1.31,3.38,3.38,0,0,0-.53,1.9,3.15,3.15,0,0,0,.5,1.79,3.33,3.33,0,0,0,1.46,1.18A5.51,5.51,0,0,0,6.81,974.86Zm0-9a3.92,3.92,0,0,0,1.81-.41,3.06,3.06,0,0,0,1.25-1.14,3.26,3.26,0,0,0,.47-1.72,3.21,3.21,0,0,0-.46-1.69,2.94,2.94,0,0,0-1.23-1.11,4,4,0,0,0-1.84-.4,4.06,4.06,0,0,0-1.87.4,2.85,2.85,0,0,0-1.24,1.11,3.19,3.19,0,0,0-.43,1.69,3.24,3.24,0,0,0,.44,1.72A3,3,0,0,0,5,965.41,4,4,0,0,0,6.81,965.82Z"/><path d="M1124.52,985.08a8,8,0,0,1-3.38-.67,5.49,5.49,0,0,1-2.28-1.89,4.68,4.68,0,0,1-.81-2.75,5.09,5.09,0,0,1,.47-2.24,4.89,4.89,0,0,1,1.32-1.72,4.1,4.1,0,0,1,1.89-.88v-.11a3.68,3.68,0,0,1-2.17-1.53,4.94,4.94,0,0,1-.07-5.31,5.21,5.21,0,0,1,2-1.8,7,7,0,0,1,5.94,0,5.18,5.18,0,0,1,2,1.8,4.75,4.75,0,0,1,.77,2.6,4.82,4.82,0,0,1-.83,2.71,3.73,3.73,0,0,1-2.15,1.53v.11a3.91,3.91,0,0,1,1.86.88,5.17,5.17,0,0,1,1.82,4,4.71,4.71,0,0,1-.84,2.75,5.52,5.52,0,0,1-2.27,1.89A7.9,7.9,0,0,1,1124.52,985.08Zm0-2a5.41,5.41,0,0,0,2.23-.42,3.29,3.29,0,0,0,1.45-1.18,3.14,3.14,0,0,0,.52-1.79,3.34,3.34,0,0,0-.56-1.9,3.7,3.7,0,0,0-1.49-1.3,4.66,4.66,0,0,0-2.15-.48,4.82,4.82,0,0,0-2.18.48,3.7,3.7,0,0,0-1.49,1.3,3.32,3.32,0,0,0-.53,1.9,3.05,3.05,0,0,0,.49,1.79,3.32,3.32,0,0,0,1.46,1.18A5.51,5.51,0,0,0,1124.52,983Zm0-9a3.89,3.89,0,0,0,1.81-.41,3.09,3.09,0,0,0,1.26-1.14,3.22,3.22,0,0,0,.46-1.72,3.14,3.14,0,0,0-.45-1.68,2.93,2.93,0,0,0-1.24-1.12,4,4,0,0,0-1.84-.4,4.09,4.09,0,0,0-1.87.4,2.93,2.93,0,0,0-1.24,1.12,3,3,0,0,0-.42,1.68,3.21,3.21,0,0,0,.43,1.72,3.16,3.16,0,0,0,1.26,1.14A4,4,0,0,0,1124.52,974Z"/><path d="M113.1,1079.74h-2.41l7-19h2.38l7,19h-2.42l-5.69-16h-.15Zm.9-7.44h9.74v2H114Z"/><path d="M233.42,19.3V.26h6.66a6.91,6.91,0,0,1,3.28.69,4.56,4.56,0,0,1,1.93,1.83,5.17,5.17,0,0,1,.63,2.54,4.24,4.24,0,0,1-.44,2,3.36,3.36,0,0,1-1.13,1.26,5.23,5.23,0,0,1-1.52.69v.18a3.82,3.82,0,0,1,1.76.62,4.42,4.42,0,0,1,1.48,1.6,5.1,5.1,0,0,1,.59,2.54,5.15,5.15,0,0,1-.65,2.58,4.47,4.47,0,0,1-2,1.81,8.52,8.52,0,0,1-3.66.67Zm2.31-2h4.57a4.65,4.65,0,0,0,3.21-.88,2.8,2.8,0,0,0,1-2.14,3.37,3.37,0,0,0-.5-1.78,3.5,3.5,0,0,0-1.4-1.32,4.36,4.36,0,0,0-2.16-.5h-4.68Zm0-8.63H240a4.22,4.22,0,0,0,1.88-.41,3.28,3.28,0,0,0,1.34-1.15,3,3,0,0,0,.5-1.75,2.9,2.9,0,0,0-.87-2.13,3.76,3.76,0,0,0-2.77-.88h-4.35Z"/><path d="M241.6,1079.74v-19h6.66a6.91,6.91,0,0,1,3.28.69,4.5,4.5,0,0,1,1.93,1.83,5.14,5.14,0,0,1,.63,2.54,4.19,4.19,0,0,1-.44,2,3.32,3.32,0,0,1-1.13,1.27,5,5,0,0,1-1.52.68v.19a3.76,3.76,0,0,1,1.76.61,4.58,4.58,0,0,1,1.48,1.6,5.62,5.62,0,0,1-.06,5.13,4.47,4.47,0,0,1-2.05,1.81,8.52,8.52,0,0,1-3.66.67Zm2.31-2h4.57a4.71,4.71,0,0,0,3.21-.87,2.8,2.8,0,0,0,1-2.14,3.36,3.36,0,0,0-.49-1.78,3.46,3.46,0,0,0-1.41-1.32,4.3,4.3,0,0,0-2.15-.51h-4.69Zm0-8.62h4.28a4.29,4.29,0,0,0,1.88-.41,3.27,3.27,0,0,0,1.33-1.16,3,3,0,0,0,.51-1.74,2.87,2.87,0,0,0-.88-2.13,3.75,3.75,0,0,0-2.77-.89h-4.35Z"/><path d="M378,6.21h-2.31A5,5,0,0,0,375,4.46a4.72,4.72,0,0,0-1.22-1.26,5.12,5.12,0,0,0-1.59-.78,6.18,6.18,0,0,0-1.83-.26,5.83,5.83,0,0,0-3.13.87A6,6,0,0,0,365,5.61a9.48,9.48,0,0,0-.82,4.17A9.56,9.56,0,0,0,365,14a6.05,6.05,0,0,0,2.22,2.57,5.84,5.84,0,0,0,3.13.88,6.53,6.53,0,0,0,1.83-.26,5.35,5.35,0,0,0,1.59-.78A4.76,4.76,0,0,0,375,15.1a5,5,0,0,0,.72-1.75H378a7.66,7.66,0,0,1-.95,2.61,7.22,7.22,0,0,1-1.71,2,7.45,7.45,0,0,1-2.3,1.21,8.5,8.5,0,0,1-2.71.42A7.94,7.94,0,0,1,366,18.37a8.13,8.13,0,0,1-3-3.38A11.54,11.54,0,0,1,362,9.78a11.57,11.57,0,0,1,1.09-5.21,8.13,8.13,0,0,1,3-3.38A8,8,0,0,1,370.36,0a8.5,8.5,0,0,1,2.71.42,7.5,7.5,0,0,1,2.3,1.23,7,7,0,0,1,1.71,2A7.66,7.66,0,0,1,378,6.21Z"/><path d="M386.21,1066.65H383.9a4.71,4.71,0,0,0-.71-1.75,4.92,4.92,0,0,0-1.23-1.26,5.38,5.38,0,0,0-1.59-.79,6.46,6.46,0,0,0-1.82-.26,5.85,5.85,0,0,0-3.14.88,6.05,6.05,0,0,0-2.22,2.57,11,11,0,0,0,0,8.35,6,6,0,0,0,2.22,2.58,5.84,5.84,0,0,0,3.14.87,6.12,6.12,0,0,0,1.82-.26,5.33,5.33,0,0,0,1.59-.77,5.12,5.12,0,0,0,1.23-1.27,4.78,4.78,0,0,0,.71-1.75h2.31a7.6,7.6,0,0,1-.95,2.61,7,7,0,0,1-1.71,2,7.36,7.36,0,0,1-2.3,1.22,8.49,8.49,0,0,1-2.7.42,8,8,0,0,1-4.34-1.19,8.2,8.2,0,0,1-3-3.38,13,13,0,0,1,0-10.42,8.2,8.2,0,0,1,3-3.38,8,8,0,0,1,4.34-1.19,8.77,8.77,0,0,1,2.7.41,7.39,7.39,0,0,1,2.3,1.23,7.28,7.28,0,0,1,1.71,2A7.58,7.58,0,0,1,386.21,1066.65Z"/><path d="M497.86,19.3H492V.26h6.14a9.29,9.29,0,0,1,4.74,1.14,7.48,7.48,0,0,1,3,3.27,11.29,11.29,0,0,1,1.06,5.07,11.56,11.56,0,0,1-1.06,5.13,7.62,7.62,0,0,1-3.09,3.29A9.9,9.9,0,0,1,497.86,19.3Zm-3.57-2h3.42a7.73,7.73,0,0,0,3.92-.91,5.68,5.68,0,0,0,2.31-2.6,9.63,9.63,0,0,0,.76-4,9.63,9.63,0,0,0-.75-4,5.52,5.52,0,0,0-2.25-2.56,7.13,7.13,0,0,0-3.73-.9h-3.68Z"/><path d="M506,1079.74h-5.87v-19h6.13a9.36,9.36,0,0,1,4.75,1.14,7.51,7.51,0,0,1,3,3.26,12.85,12.85,0,0,1,0,10.2,7.59,7.59,0,0,1-3.09,3.3A9.9,9.9,0,0,1,506,1079.74Zm-3.57-2h3.42a7.63,7.63,0,0,0,3.92-.91,5.55,5.55,0,0,0,2.31-2.59,10.79,10.79,0,0,0,0-8,5.52,5.52,0,0,0-2.25-2.56,7,7,0,0,0-3.73-.91h-3.68Z"/><path d="M621.27,19.3V.26h11.49V2.31h-9.19V8.74h8.59v2h-8.59v6.47h9.34v2Z"/><path d="M629.45,1079.74v-19h11.49v2h-9.19v6.44h8.6v2h-8.6v6.47h9.34v2Z"/><path d="M750.55,19.3V.26H762V2.31h-9.12V8.74h8.26v2h-8.26V19.3Z"/><path d="M758.73,1079.74v-19h11.42v2H761v6.44h8.25v2H761v8.52Z"/><path d="M892.85,6.21A7.07,7.07,0,0,0,892,4.53a5.16,5.16,0,0,0-1.18-1.28,4.78,4.78,0,0,0-1.55-.81,6,6,0,0,0-1.89-.28,5.66,5.66,0,0,0-3.08.87,6,6,0,0,0-2.21,2.58,9.63,9.63,0,0,0-.81,4.17,9.56,9.56,0,0,0,.82,4.18,6,6,0,0,0,2.25,2.57,5.93,5.93,0,0,0,3.17.88,5.86,5.86,0,0,0,2.89-.7,5,5,0,0,0,1.95-2,6.26,6.26,0,0,0,.71-3l.7.15h-5.72V9.78h7.25v2.05a8,8,0,0,1-1,4.09,6.84,6.84,0,0,1-2.75,2.69,8.93,8.93,0,0,1-8.46-.24,8.07,8.07,0,0,1-3-3.38,12,12,0,0,1-1-5.21,12.83,12.83,0,0,1,.6-4.06,9.09,9.09,0,0,1,1.73-3.09A7.45,7.45,0,0,1,884.06.68a8.69,8.69,0,0,1,6.16-.22,7.35,7.35,0,0,1,2.34,1.27,7.19,7.19,0,0,1,1.72,2,7.65,7.65,0,0,1,1,2.52Z"/><path d="M901,1066.65a6.23,6.23,0,0,0-.81-1.68,5,5,0,0,0-1.18-1.29,5.15,5.15,0,0,0-1.54-.81,6.36,6.36,0,0,0-1.9-.28,5.67,5.67,0,0,0-3.08.88,6,6,0,0,0-2.2,2.57,11,11,0,0,0,0,8.35,5.78,5.78,0,0,0,5.42,3.45,5.84,5.84,0,0,0,2.88-.69,5,5,0,0,0,2-2,6.29,6.29,0,0,0,.71-3l.71.14h-5.73v-2h7.25v2a8.06,8.06,0,0,1-1,4.1,7,7,0,0,1-2.76,2.69,8.93,8.93,0,0,1-8.46-.24,8,8,0,0,1-3-3.38,11.84,11.84,0,0,1-1.06-5.21,12.79,12.79,0,0,1,.6-4.06,9.09,9.09,0,0,1,1.73-3.09,7.63,7.63,0,0,1,2.64-2,8.07,8.07,0,0,1,3.36-.68,8.58,8.58,0,0,1,2.81.45,7.44,7.44,0,0,1,2.33,1.28,7.19,7.19,0,0,1,1.72,2,7.28,7.28,0,0,1,.95,2.52Z"/><path d="M1009.11,19.3V.26h2.31V8.74h10.15V.26h2.31v19h-2.31V10.79h-10.15V19.3Z"/><path d="M1017.29,1079.74v-19h2.31v8.48h10.15v-8.48h2.31v19h-2.31v-8.52H1019.6v8.52Z"/></svg>