<svg id="Capa_1" data-name="Capa 1" xmlns="http://www.w3.org/2000/svg" xmlns:xlink="http://www.w3.org/1999/xlink" viewBox="0 0 1110 1041"><defs><style>.cls-1{fill:#fff;}.cls-2{fill:#fef4eb;}.cls-3{fill:#444;}.cls-4{mask:url(#mask);}</style><mask id="mask" x="-2" y="-2" width="1114.44" height="1045" maskUnits="userSpaceOnUse"><g id="path-1-inside-1_3_152" data-name="path-1-inside-1 3 152"><path class="cls-1" d="M-.26-.26H138.61V129.93H-.26Z"/><path class="cls-1" d="M277.48-.26H416.35V129.93H277.48Z"/><path class="cls-1" d="M555.22-.26H694.09V129.93H555.22Z"/><path class="cls-1" d="M833-.26H971.83V129.93H833Z"/><path class="cls-1" d="M971.83,129.93H1110.7V260.12H971.83Z"/><path class="cls-1" d="M694.09,129.93H833V260.12H694.09Z"/><path class="cls-1" d="M416.35,129.93H555.22V260.12H416.35Z"/><path class="cls-1" d="M138.61,129.93H277.48V260.12H138.61Z"/><path class="cls-1" d="M277.48,260.12H416.35V390.31H277.48Z"/><path class="cls-1" d="M555.22,260.12H694.09V390.31H555.22Z"/><path class="cls-1" d="M833,260.12H971.83V390.31H833Z"/><path class="cls-1" d="M971.83,390.31H1110.7V520.5H971.83Z"/><path class="cls-1" d="M694.09,390.31H833V520.5H694.09Z"/><path class="cls-1" d="M416.35,390.31H555.22V520.5H416.35Z"/><path class="cls-1" d="M138.61,390.31H277.48V520.5H138.61Z"/><path class="cls-1" d="M277.48,520.5H416.35V650.69H277.48Z"/><path class="cls-1" d="M555.22,520.5H694.09V650.69H555.22Z"/><path class="cls-1" d="M833,520.5H971.83V650.69H833Z"/><path class="cls-1" d="M971.83,650.69H1110.7V780.88H971.83Z"/><path class="cls-1" d="M694.09,650.69H833V780.88H694.09Z"/><path class="cls-1" d="M416.35,650.69H555.22V780.88H416.35Z"/><path class="cls-1" d="M138.61,650.69H277.48V780.88H138.61Z"/><path class="cls-1" d="M277.48,780.88H416.35V911.07H277.48Z"/><path class="cls-1" d="M555.22,780.88H694.09V911.07H555.22Z"/><path class="cls-1" d="M833,780.88H971.83V911.07H833Z"/><path class="cls-1" d="M971.83,911.07H1110.7v130.19H971.83Z"/><path class="cls-1" d="M694.09,911.07H833v130.19H694.09Z"/><path class="cls-1" d="M416.35,911.07H555.22v130.19H416.35Z"/><path class="cls-1" d="M138.61,911.07H277.48v130.19H138.61Z"/><path class="cls-1" d="M-.26,129.93H138.61V260.12H-.26Z"/><path class="cls-1" d="M-.26,260.12H138.61V390.31H-.26Z"/><path class="cls-1" d="M-.26,390.31H138.61V520.5H-.26Z"/><path class="cls-1" d="M138.61-.26H277.48V129.93H138.61V-.26Z"/><path class="cls-1" d="M138.61,260.12H277.48V390.31H138.61Z"/><path class="cls-1" d="M138.61,520.5H277.48V650.69H138.61Z"/><path class="cls-1" d="M138.61,780.88H277.48V911.07H138.61Z"/><path class="cls-1" d="M277.48,911.07H416.35v130.19H277.48Z"/><path class="cls-1" d="M277.48,650.69H416.35V780.88H277.48Z"/><path class="cls-1" d="M277.48,390.31H416.35V520.5H277.48Z"/><path class="cls-1" d="M277.48,129.93H416.35V260.12H277.48Z"/><path class="cls-1" d="M416.35-.26H555.22V129.93H416.35Z"/><path class="cls-1" d="M416.35,260.12H555.22V390.31H416.35Z"/><path class="cls-1" d="M416.35,520.5H555.22V650.69H416.35Z"/><path class="cls-1" d="M416.35,780.88H555.22V911.07H416.35Z"/><path class="cls-1" d="M555.22,911.07H694.09v130.19H555.22Z"/><path class="cls-1" d="M555.22,650.69H694.09V780.88H555.22Z"/><path class="cls-1" d="M555.22,390.31H694.09V520.5H555.22Z"/><path class="cls-1" d="M555.22,129.93H694.09V260.12H555.22Z"/><path class="cls-1" d="M694.09-.26H833V129.93H694.09Z"/><path class="cls-1" d="M694.09,260.12H833V390.31H694.09Z"/><path class="cls-1" d="M694.09,520.5H833V650.69H694.09Z"/><path class="cls-1" d="M694.09,780.88H833V911.07H694.09Z"/><path class="cls-1" d="M833,911.07H971.83v130.19H833Z"/><path class="cls-1" d="M833,650.69H971.83V780.88H833Z"/><path class="cls-1" d="M833,390.31H971.83V520.5H833Z"/><path class="cls-1" d="M833,129.93H971.83V260.12H833Z"/><path class="cls-1" d="M971.83-.26H1110.7V129.93H971.83Z"/><path class="cls-1" d="M971.83,260.12H1110.7V390.31H971.83Z"/><path class="cls-1" d="M971.83,520.5H1110.7V650.69H971.83Z"/><path class="cls-1" d="M971.83,780.88H1110.7V911.07H971.83Z"/><path class="cls-1" d="M-.26,520.5H138.61V650.69H-.26Z"/><path class="cls-1" d="M-.26,650.69H138.61V780.88H-.26Z"/><path class="cls-1" d="M-.26,780.88H138.61V911.07H-.26Z"/><path class="cls-1" d="M-.26,911.07H138.61v130.19H-.26Z"/></g></mask></defs><path class="cls-2" d="M-.26-.26H138.61V129.93H-.26Z"/><path class="cls-2" d="M277.48-.26H416.35V129.93H277.48Z"/><path class="cls-2" d="M555.22-.26H694.09V129.93H555.22Z"/><path class="cls-2" d="M833-.26H971.83V129.93H833Z"/><path class="cls-2" d="M971.83,129.93H1110.7V260.12H971.83Z"/><path class="cls-2" d="M694.09,129.93H833V260.12H694.09Z"/><path class="cls-2" d="M416.35,129.93H555.22V260.12H416.35Z"/><path class="cls-2" d="M138.61,129.93H277.48V260.12H138.61Z"/><path class="cls-2" d="M277.48,260.12H416.35V390.31H277.48Z"/><path class="cls-2" d="M555.22,260.12H694.09V390.31H555.22Z"/><path class="cls-2" d="M833,260.12H971.83V390.31H833Z"/><path class="cls-2" d="M971.83,390.31H1110.7V520.5H971.83Z"/><path class="cls-2" d="M694.09,390.31H833V520.5H694.09Z"/><path class="cls-2" d="M416.35,390.31H555.22V520.5H416.35Z"/><path class="cls-2" d="M138.61,390.31H277.48V520.5H138.61Z"/><path class="cls-2" d="M277.48,520.5H416.35V650.69H277.48Z"/><path class="cls-2" d="M555.22,520.5H694.09V650.69H555.22Z"/><path class="cls-2" d="M833,520.5H971.83V650.69H833Z"/><path class="cls-2" d="M971.83,650.69H1110.7V780.88H971.83Z"/><path class="cls-2" d="M694.09,650.69H833V780.88H694.09Z"/><path class="cls-2" d="M416.35,650.69H555.22V780.88H416.35Z"/><path class="cls-2" d="M138.61,650.69H277.48V780.88H138.61Z"/><path class="cls-2" d="M277.48,780.88H416.35V911.07H277.48Z"/><path class="cls-2" d="M555.22,780.88H694.09V911.07H555.22Z"/><path class="cls-2" d="M833,780.88H971.83V911.07H833Z"/><path class="cls-2" d="M971.83,911.07H1110.7v130.19H971.83Z"/><path class="cls-2" d="M694.09,911.07H833v130.19H694.09Z"/><path class="cls-2" d="M416.35,911.07H555.22v130.19H416.35Z"/><path class="cls-2" d="M138.61,911.07H277.48v130.19H138.61Z"/><path class="cls-3" d="M-.26,129.93H138.61V260.12H-.26Z"/><path class="cls-2" d="M-.26,260.12H138.61V390.31H-.26Z"/><path class="cls-3" d="M-.26,390.31H138.61V520.5H-.26Z"/><path class="cls-3" d="M138.61-.26H277.48V129.93H138.61V-.26Z"/><path class="cls-3" d="M138.61,260.12H277.48V390.31H138.61Z"/><path class="cls-3" d="M138.61,520.5H277.48V650.69H138.61Z"/><path class="cls-3" d="M138.61,780.88H277.48V911.07H138.61Z"/><path class="cls-3" d="M277.48,911.07H416.35v130.19H277.48Z"/><path class="cls-3" d="M277.48,650.69H416.35V780.88H277.48Z"/><path class="cls-3" d="M277.48,390.31H416.35V520.5H277.48Z"/><path class="cls-3" d="M277.48,129.93H416.35V260.12H277.48Z"/><path class="cls-3" d="M416.35-.26H555.22V129.93H416.35Z"/><path class="cls-3" d="M416.35,260.12H555.22V390.31H416.35Z"/><path class="cls-3" d="M416.35,520.5H555.22V650.69H416.35Z"/><path class="cls-3" d="M416.35,780.88H555.22V911.07H416.35Z"/><path class="cls-3" d="M555.22,911.07H694.09v130.19H555.22Z"/><path class="cls-3" d="M555.22,650.69H694.09V780.88H555.22Z"/><path class="cls-3" d="M555.22,390.31H694.09V520.5H555.22Z"/><path class="cls-3" d="M555.22,129.93H694.09V260.12H555.22Z"/><path class="cls-3" d="M694.09-.26H833V129.93H694.09Z"/><path class="cls-3" d="M694.09,260.12H833V390.31H694.09Z"/><path class="cls-3" d="M694.09,520.5H833V650.69H694.09Z"/><path class="cls-3" d="M694.09,780.88H833V911.07H694.09Z"/><path class="cls-3" d="M833,911.07H971.83v130.19H833Z"/><path class="cls-3" d="M833,650.69H971.83V780.88H833Z"/><path class="cls-3" d="M833,390.31H971.83V520.5H833Z"/><path class="cls-3" d="M833,129.93H971.83V260.12H833Z"/><path class="cls-3" d="M971.83-.26H1110.7V129.93H971.83Z"/><path class="cls-3" d="M971.83,260.12H1110.7V390.31H971.83Z"/><path class="cls-3" d="M971.83,520.5H1110.7V650.69H971.83Z"/><path class="cls-3" d="M971.83,780.88H1110.7V911.07H971.83Z"/><path class="cls-2" d="M-.26,520.5H138.61V650.69H-.26Z"/><path class="cls-3" d="M-.26,650.69H138.61V780.88H-.26Z"/><path class="cls-2" d="M-.26,780.88H138.61V911.07H-.26Z"/><path class="cls-3" d="M-.26,911.07H138.61v130.19H-.26Z"/><g class="cls-4"><path class="cls-3" d="M138.61,129.06H-.26v1.73H138.61ZM415.48-.26V129.93h1.74V-.26Zm.87,129.32H277.48v1.73H416.35Zm-138,.87V-.26h-1.73V129.93ZM693.22-.26V129.93H695V-.26Zm.87,129.32H555.22v1.73H694.09Zm-138,.87V-.26h-1.74V129.93ZM971-.26V129.93h1.74V-.26Zm.87,129.32H833v1.73H971.83Zm-138,.87V-.26h-1.74V129.93Zm138,.86H1110.7v-1.73H971.83ZM1110.7,259.25H971.83V261H1110.7Zm-138,.87V129.93H971V260.12ZM694.09,130.79H833v-1.73H694.09Zm138-.86V260.12h1.74V129.93ZM833,259.25H694.09V261H833Zm-138,.87V129.93h-1.74V260.12ZM416.35,130.79H555.22v-1.73H416.35Zm138-.86V260.12h1.74V129.93Zm.87,129.32H416.35V261H555.22Zm-138,.87V129.93h-1.74V260.12ZM138.61,130.79H277.48v-1.73H138.61Zm138-.86V260.12h1.73V129.93Zm.87,129.32H138.61V261H277.48Zm-138,.87V129.93h-1.73V260.12Zm138,.87H416.35v-1.74H277.48Zm138-.87V390.31h1.74V260.12Zm.87,129.32H277.48v1.74H416.35Zm-138,.87V260.12h-1.73V390.31ZM555.22,261H694.09v-1.74H555.22Zm138-.87V390.31H695V260.12Zm.87,129.32H555.22v1.74H694.09Zm-138,.87V260.12h-1.74V390.31ZM833,261H971.83v-1.74H833Zm138-.87V390.31h1.74V260.12Zm.87,129.32H833v1.74H971.83Zm-138,.87V260.12h-1.74V390.31Zm138,.87H1110.7v-1.74H971.83ZM1110.7,519.63H971.83v1.74H1110.7Zm-138,.87V390.31H971V520.5ZM694.09,391.18H833v-1.74H694.09Zm138-.87V520.5h1.74V390.31ZM833,519.63H694.09v1.74H833Zm-138,.87V390.31h-1.74V520.5ZM416.35,391.18H555.22v-1.74H416.35Zm138-.87V520.5h1.74V390.31Zm.87,129.32H416.35v1.74H555.22Zm-138,.87V390.31h-1.74V520.5ZM138.61,391.18H277.48v-1.74H138.61Zm138-.87V520.5h1.73V390.31Zm.87,129.32H138.61v1.74H277.48Zm-138,.87V390.31h-1.73V520.5Zm138,.87H416.35v-1.74H277.48Zm138-.87V650.69h1.74V520.5Zm.87,129.32H277.48v1.74H416.35Zm-138,.87V520.5h-1.73V650.69ZM555.22,521.37H694.09v-1.74H555.22Zm138-.87V650.69H695V520.5Zm.87,129.32H555.22v1.74H694.09Zm-138,.87V520.5h-1.74V650.69ZM833,521.37H971.83v-1.74H833Zm138-.87V650.69h1.74V520.5Zm.87,129.32H833v1.74H971.83Zm-138,.87V520.5h-1.74V650.69Zm138,.87H1110.7v-1.74H971.83ZM1110.7,780H971.83v1.74H1110.7Zm-138,.87V650.69H971V780.88ZM694.09,651.56H833v-1.74H694.09Zm138-.87V780.88h1.74V650.69ZM833,780H694.09v1.74H833Zm-138,.87V650.69h-1.74V780.88ZM416.35,651.56H555.22v-1.74H416.35Zm138-.87V780.88h1.74V650.69ZM555.22,780H416.35v1.74H555.22Zm-138,.87V650.69h-1.74V780.88ZM138.61,651.56H277.48v-1.74H138.61Zm138-.87V780.88h1.73V650.69ZM277.48,780H138.61v1.74H277.48Zm-138,.87V650.69h-1.73V780.88Zm138,.87H416.35V780H277.48Zm138-.87V911.07h1.74V780.88Zm.87,129.33H277.48v1.73H416.35Zm-138,.86V780.88h-1.73V911.07ZM555.22,781.75H694.09V780H555.22Zm138-.87V911.07H695V780.88Zm.87,129.33H555.22v1.73H694.09Zm-138,.86V780.88h-1.74V911.07ZM833,781.75H971.83V780H833Zm138-.87V911.07h1.74V780.88Zm.87,129.33H833v1.73H971.83Zm-138,.86V780.88h-1.74V911.07Zm138,.87H1110.7v-1.73H971.83Zm.87,129.32V911.07H971v130.19ZM694.09,911.94H833v-1.73H694.09Zm138-.87v130.19h1.74V911.07ZM695,1041.26V911.07h-1.74v130.19ZM416.35,911.94H555.22v-1.73H416.35Zm138-.87v130.19h1.74V911.07ZM417.22,1041.26V911.07h-1.74v130.19ZM138.61,911.94H277.48v-1.73H138.61Zm138-.87v130.19h1.73V911.07ZM139.47,1041.26V911.07h-1.73v130.19Zm-.86-782H-.26V261H138.61Zm-.87.87V390.31h1.73V260.12Zm.87,129.32H-.26v1.74H138.61Zm0,130.19H-.26v1.74H138.61Zm.86,131.06V520.5h-1.73V650.69Zm0,260.38V780.88h-1.73V911.07Zm-.86-261.25H-.26v1.74H138.61Zm0,130.19H-.26v1.74H138.61Zm0,130.2H-.26v1.73H138.61ZM137.74-.26V64.83h1.73V-.26Zm0,65.09v65.1h1.73V64.83ZM-.26-.26V-2H-2V-.26Zm138.87,0v0ZM-.26,129.93h0ZM277.48-.26v0ZM1110.7,1041.26V1043h1.74v-1.74ZM-.26,390.31h0Zm0,130.19h0ZM1110.7-.26h1.74V-2h-1.74Zm-1111,651h0Zm0,130.19h0Zm0,130.19h0Zm0,130.19H-2V1043H-.26ZM-.26,1.47H138.61V-2H-.26ZM1.47,129.93V-.26H-2V129.93Zm276-128.46H416.35V-2H277.48Zm277.74,0H694.09V-2H555.22ZM833,1.47H971.83V-2H833Zm276,128.46V260.12h3.48V129.93Zm0,260.38V520.5h3.48V390.31Zm0,260.38V780.88h3.48V650.69Zm0,260.38v130.19h3.48V911.07Zm1.74,128.46H971.83V1043H1110.7Zm-277.74,0H694.09V1043H833Zm-277.74,0H416.35V1043H555.22Zm-277.74,0H138.61V1043H277.48ZM1.47,260.12V129.93H-2V260.12Zm0,130.19V260.12H-2V390.31Zm0,130.19V390.31H-2V520.5Zm137.14-519H277.48V-2H138.61ZM416.35,1039.53H277.48V1043H416.35Zm0-1038.06H555.22V-2H416.35ZM694.09,1039.53H555.22V1043H694.09Zm0-1038.06H833V-2H694.09ZM971.83,1039.53H833V1043H971.83Zm0-1038.06H1110.7V-2H971.83ZM1109-.26V129.93h3.48V-.26Zm0,260.38V390.31h3.48V260.12Zm0,260.38V650.69h3.48V520.5Zm0,260.38V911.07h3.48V780.88ZM1.47,650.69V520.5H-2V650.69Zm0,130.19V650.69H-2V780.88Zm0,130.19V780.88H-2V911.07Zm137.14,128.46H-.26V1043H138.61ZM1.47,1041.26V911.07H-2v130.19Z"/></g></svg>