<svg xmlns="http://www.w3.org/2000/svg" viewBox="0 0 300 300"><defs><style>.cls-1{isolation:isolate;}.cls-2{fill:#8e7c70;}.cls-3{fill:#ccc;mix-blend-mode:multiply;}.cls-4{fill:#736357;}.cls-5{fill:#dcb9a9;}.cls-6{fill:#d1a493;}.cls-7{fill:#7f6242;}.cls-8{fill:#9ea04d;}.cls-9{fill:#1a1a1a;}.cls-10{fill:#fff;}.cls-11{fill:#4d4d4d;}.cls-12{fill:#333;}</style></defs><g class="cls-1"><g id="Capa_1" data-name="Capa 1"><path class="cls-2" d="M143.27,248.2S117.44,232.75,92,235.71l-16.1,28.37L95,289.7s35.57-1.26,50.18-20.53V249.05Z"/><path class="cls-3" d="M100.07,258.16s4.87-12.28,11.65-9.32c0,0,25.62,5.29,31.13,11.86l-26.26,7.62s-6.56.21,1.27-3.6c0,0,22.66-5.12,3.6-6.37Z"/><path class="cls-2" d="M159.78,248.2s25.84-15.45,51.24-12.49l16.1,28.37L208.06,289.7s-35.57-1.26-50.18-20.53V249.05Z"/><path class="cls-3" d="M203,258.16s-4.87-12.28-11.65-9.32c0,0-25.62,5.29-31.12,11.86l26.25,7.62s6.57.21-1.27-3.6c0,0-22.65-5.12-3.6-6.37Z"/><path class="cls-4" d="M145.17,249.05s7-4,13.56,0v20.33a13.08,13.08,0,0,1-13.56-.21Z"/><path class="cls-5" d="M51.42,16.18c.59-.25,1.15-.53,1.73-.81,1.51-.73.73-2.66-.47-3.13-2.7-1.05-6.07.23-8.3,1.91-1.64,1.24-.65,4.09,1.53,3.44,1.18-.35,2.34-.76,3.52-1.07A15.58,15.58,0,0,0,51.42,16.18Z"/><path class="cls-5" d="M252.46,109.59a1.24,1.24,0,0,0-2.27-.9,16.12,16.12,0,0,0-1.42,4.09c-.14.52-.31,1-.46,1.55a1.41,1.41,0,0,0-.79.3,16,16,0,0,0-4.51,6.94,7.37,7.37,0,0,0-2.37,2.28c-2.25,3.31-5.29,5.86-7.68,9h0a4.43,4.43,0,0,0-2.28-.9c1.39-2.07,2.06-4.43-.48-6.15s-5.7.61-7.92,3a6.38,6.38,0,0,0-.42-1.13c-2-4-6.33-5.92-10-8.07s-5.21-5.55-8-8.7a3.06,3.06,0,0,0-1.48-.91c2.21-7.78,3-16,2.35-21.72a7.32,7.32,0,0,0-3.89-5.51,8.22,8.22,0,0,0-1.07-1.7c1.09-1.67,2.19-3.34,3.25-5a31.64,31.64,0,0,0,2.67-5.6c4.5-5.58,8.84-11.31,13.27-16.95,5.15-6.55,10.28-13.1,15.58-19.52,3.82-4.62,8.61-9.24,7.78-15.69a2,2,0,0,0-2-1.92c-6.47-.53-10.76,4.54-14.77,9-6.3,6.94-12.25,14.17-18.13,21.47-7.31,9.06-22.5,22.91-22.05,35.65C182,85.14,178.39,87.6,175,90.18l-.08,0c-12.44-4.77-33.93-7.36-44.56,3.31-1.81-1.73-4-1.49-6.18-2.52a16.59,16.59,0,0,1-7-5.71c-3.45-4.66-5.39-10.7-9.52-14.77a2.61,2.61,0,0,0-1.08-.65c-.51-.93-1-1.87-1.56-2.8-3.32-5.74-8.53-10.91-13-15.75-1.17-1.26-2.36-2.56-3.58-3.86C87,45.25,85.54,43.12,84.07,41,78.5,33,62,7.72,49.4,17.66a2.39,2.39,0,0,0,2.48,4.08c5-2.37,11.31,4.81,14.22,7.88,6.5,6.87,11.72,15,16.71,23s9.52,16.2,13.89,24.52c2.74,5.21,4.78,11.12,8.63,15.66a2.92,2.92,0,0,0,3.63.9c.31.55.62,1.09.94,1.62a8,8,0,0,0-3.29,3.22c-3.14,5.61-12.29,9.75-8.73,14.38-4,1.63-15.26,3.44-17,8.74a5.77,5.77,0,0,0-2.48.81A1.49,1.49,0,0,0,78,122c-3.65-2.69-5.66-7.85-10-9.29-2-.68-4.94.89-5.24,3.11-1.45,10.8,8.31,16.1,13.06,24.2l-.24,1.88c-.19,1.43.39,3.25,2.08,3.51l.33,0a14.19,14.19,0,0,0-1.25,8.71,5.81,5.81,0,0,0,.46,1.62,107.69,107.69,0,0,0,1.43,12.71c.73,4.29,2.91,7.94,5.28,11.51-4.06,13,13,25.28,17.31,36,3.06,7.64,7.2,14.6,15.3,19.91a19.87,19.87,0,0,0,10.72,3.63,6.42,6.42,0,0,0,3.42,3.08c0,.06,0,.12,0,.17,7.54,1.18,14.48,5,22.07,5.62,6.86.58,13.4-3.18,15.51-9.32a10.94,10.94,0,0,0,12.58,1.18c5.61-3,9.64-9.65,11.67-16.64,6.54-3.85,7.12-10.45,11.79-16.91,4-5.56,13.37-15.13,12.44-22.33,3.82-4.8,5.82-13.4,8.57-19.28.94-2,2.11-4.4,3-6.92,1.08-1.34,6.82-8.76,11.81-16.61,3-1.75,5.26-5.48,6.66-8.44,2.31-4.89,5.33-11.93,3.65-17.37.22-.61.46-1.2.67-1.81A27.07,27.07,0,0,0,252.46,109.59ZM148.29,231.49c.08.13.17.24.26.36a17,17,0,0,1-1.88.57c1.3-2.55.41-5.46-5.3-7.24-2.77-.87,1.4-4-.91-2.34,0,0-2.37.11-2.37.08,2.42-2.46,1.29-4.92-1.31-6.14a2.74,2.74,0,0,0-2.43-2.09c-.59-.1-.87-.53-1.34-.65-.14-.39-.67-1.26-.62-1.63.32-2.37.69-2.79,1.55-3.34a5.38,5.38,0,0,0,4.56,1.11c3-.7,24.25-.28,21.91,3.35-2.63,4.07-5.44,6.85-7.58,10.17C149.32,223.43,146.27,228.19,148.29,231.49Zm-47.12-99a4.25,4.25,0,0,0,.49-.21,12.34,12.34,0,0,0,.71,1.52l-1,0A2.54,2.54,0,0,0,101.17,132.54Zm94.38,52.06a2.64,2.64,0,0,0-.29-.21l.47-.07Zm-22.53-21c-1-1-1.73-1.19-2.29-.87a63.2,63.2,0,0,1,2.17-8.43,1.89,1.89,0,0,0,.89-.14,6.69,6.69,0,0,0,3-1.78c.7-.85,1.47-1.65,2.23-2.46a31,31,0,0,1,2.53-2.33,3.86,3.86,0,0,0,1.3-2.75c3.65-1.49,7.31-3.22,11.13-3.64,5.72-.63,11.4,2.54,16.79,2.93.48.81,1.07,1.58,1.57,2.29a30.13,30.13,0,0,0,2.25,2.42c.17.2.33.37.49.54-.13.23-.26.47-.38.71h-.12l-.22,0h-.13c-.07,0-.11.07-.17.09l-.23.12-.13.11a1,1,0,0,0-.38.63c0,.05,0,.1,0,.15a1.71,1.71,0,0,0,0,.4v.15s0,0,0,.08a.41.41,0,0,0,0,.11c0,.16,0,.33.08.5h0c-3.06,5.78-6.23,11.41-12.07,15.21C195.18,171.61,178.51,169.13,173,163.55Zm45.17-21.38-.05-.09.11-.07h0C218.24,142.06,218.21,142.11,218.19,142.17Zm-102.35-6.41.6.65c-.25-.09-.5-.19-.76-.27C115.74,136,115.79,135.89,115.84,135.76ZM85.89,147.6c0-.27,0-.5.06-.73a8.47,8.47,0,0,1,1.92-.51c4.67,1.31,10.45-1.73,15.22-1.67,7.19.09,12.89,4.27,19.66,5.76a4.62,4.62,0,0,0,2.22-.07c.86,4.9,2.91,9.33,3,14-4.74,2.56-8.62,6-13.46,8.27a49.54,49.54,0,0,1-7.39.29,5.11,5.11,0,0,0-1.37-1.33,25.36,25.36,0,0,0-4.74-2c-1.51-.63-3-1.69-4.59-1.91a77,77,0,0,1-4.6-8.73,5,5,0,0,0-5.93-2.88,4.18,4.18,0,0,0,.14-3.38c-.3-1-.25-3.94-1.18-4A1.11,1.11,0,0,0,85.89,147.6Zm80.71,78.16,1.2-1.08c0,.19,0,.37,0,.55-.2.19-.37.38-.55.58Zm15.06-18.94h0Z"/><path class="cls-6" d="M263.76,53.87a18.15,18.15,0,0,0-1.14-3,57.5,57.5,0,0,0,.05-7.65q.09-3.42.22-6.82a5.24,5.24,0,0,0-1.65-4.26c0-1.32-.12-2.64-.28-4-1.08-9-6-20.38-15.82-17.16a2.9,2.9,0,0,0-1.24.09c-13.38,4.11-19.77,25-27.44,35.31-4.37,5.84-21.9,20-18.16,29.4a6.53,6.53,0,0,0-1,2.1,6.84,6.84,0,0,0,4.27,8.15c.31,4.48.8,9,2.58,13a23.18,23.18,0,0,0-1.65,8.28c.05,8.66,6.7,12.88,14.18,15.4,1.15,3.87,5.95,6,10,4.33,1.15,4.57,7.5,7.73,11.17,3.28a23.62,23.62,0,0,0,3.05-4.6c2.81-4.31,5.68-8.38,7.6-12.92a6.71,6.71,0,0,0,2-.85,4.51,4.51,0,0,0,1.37.21,4.7,4.7,0,0,0,3.25-1.42,4.55,4.55,0,0,0,1.1-4.53c-.1-.25-.21-.5-.31-.74-.18-.42-.36-.83-.55-1.24l-.36-.46c5.13-13.38,6.57-27.26,7.13-41.35a2.22,2.22,0,0,0,.89-.79C264.63,59.29,264.53,56.54,263.76,53.87Z"/><path class="cls-6" d="M106.55,90.56c.06-1.69.08-3.24.13-4.45a25.06,25.06,0,0,0-10.44-22,5,5,0,0,0-5.8-.22A208.82,208.82,0,0,0,65,27.52c-4.75-5.37-20.81-21.67-27.35-9.25-5.36,10.17-1.23,25.69.83,36.42,2.1,10.94,6.47,21.21,9.41,31.91a130.33,130.33,0,0,0,5,15.44c0,.13,0,.26,0,.39-.39,4.89,1.59,8.68,4.28,12.69a5.42,5.42,0,0,0,9.19-.09,5.25,5.25,0,0,0,3-1.64,6.55,6.55,0,0,0,1.94,1.91l3.42,2.17A5.19,5.19,0,0,0,81,121.94l1.55-.22a5.52,5.52,0,0,0,5-4.1c3.7-1.89,7.92-3,11.44-5.39a17.3,17.3,0,0,0,4.71-4.75,5.17,5.17,0,0,0,.93-1.61,14.74,14.74,0,0,0,.89-2.09c3.25,0,6.5-4.1,4.37-7.49C108.73,94.46,107.68,92.48,106.55,90.56Z"/><path class="cls-7" d="M157.75,210.73a8.42,8.42,0,0,1-1,.24,2.78,2.78,0,0,0-.75-.11,15.55,15.55,0,0,0-2.8.36c-2.72-.16-5.46-.8-8.28-.17a2,2,0,0,0-.86.44,15.19,15.19,0,0,0-10.62-1.71A2.34,2.34,0,0,0,133,214a12.32,12.32,0,0,0,2.13.7,4.18,4.18,0,0,0,1.2,2.93c2.68,2.9,4.5,7.4,8.25,9.05a4.68,4.68,0,0,0,3.52.11,4.43,4.43,0,0,0,1.24.18,4.77,4.77,0,0,0,4.6-4.35,5.86,5.86,0,0,0,2.84-2.3,13.44,13.44,0,0,0,1.7-3.2c.23-.71.29-1.47.51-2.2h0C161.68,214,160.44,209.81,157.75,210.73Z"/><path class="cls-8" d="M121.79,149.63c-1.14-1.9-4.17-1-4.7.93-.69,2.55-1.84,4.85-2,7.54a10.63,10.63,0,0,0-2.81,3.31,10.2,10.2,0,0,0-2,1.74,1.8,1.8,0,0,0-.41.66,8.09,8.09,0,0,0-2.81,1.14c-.71.44-1.61,1-2.11,1.4l-.72.51a23.84,23.84,0,0,0-3.21-2.23c-.69-.42-1.33-.89-2-1.36a17.52,17.52,0,0,0-2.12-2.2c-.56-.59-1.09-1.2-1.6-1.82a2.58,2.58,0,0,0,.23-1.77,7.12,7.12,0,0,0-.27-1,3.85,3.85,0,0,0,.21-2.32,9.81,9.81,0,0,0-1.42-2.86,4.67,4.67,0,0,0,.23-.66,5.13,5.13,0,0,0,0-2.61c0-.06,0-.12-.07-.17s0,0-.36-.81a4,4,0,0,1,.25.56.14.14,0,0,1,0,.06,6.62,6.62,0,0,0-.3-.66s0,0,0-.05h0a.08.08,0,0,1,0,.05l0,0,0-.09c1.29-.49,2.21-2.2,1-3.32s-2.68.17-3,1.47a4,4,0,0,0-.57-.22,4.09,4.09,0,0,0-4.45,1.91,4.44,4.44,0,0,0-.52,3.86,9.35,9.35,0,0,0,.62,1.49,3.69,3.69,0,0,0,.59.75c-.75,1.24-.07,3,.77,4a1.82,1.82,0,0,0,1.1.61A2.15,2.15,0,0,0,90,158a2.55,2.55,0,0,0,.13.29v0c0,.05-.07.07-.1.11-2.14,3.26,3.07,7,5.32,8.46,1.4.91,4.6,3.35,7.18,4a2.15,2.15,0,0,0,.18.24c2.23,2.25,6,1.53,8.44-.46a2.63,2.63,0,0,0,2.38.05,18.2,18.2,0,0,1,5.55-1.69,5.55,5.55,0,0,0,3.49-2.1,2.89,2.89,0,0,0,3.8-.53c2.58-2.85,1.15-6.28-.58-9.08C124.54,155.24,124,151.23,121.79,149.63Z"/><path class="cls-8" d="M210.82,146.54l-.27,0a2,2,0,0,0-.77-.65c-.31-.15-.62-.27-.93-.39l-.2-.06-.17-.08a3.2,3.2,0,0,0-2.53-.11l-.6-.27-.35-.48a2,2,0,0,0-1.85-.68,8.53,8.53,0,0,1-1.48-1.13c-1.72-1.68-4.07.89-2.55,2.65a13.38,13.38,0,0,0,1.87,1.75,12.51,12.51,0,0,0,1,2,12.71,12.71,0,0,0,1.28,1.88,2.75,2.75,0,0,0,.06.9,1.45,1.45,0,0,0-.14.64,3.17,3.17,0,0,0,.64,2.06,15.75,15.75,0,0,0-1.1,3.76c-.15.76-.33,1.5-.52,2.25a3.39,3.39,0,0,0-.07,1,4,4,0,0,0-2,1.44c-.39.51-.83,1-1.26,1.47a5.43,5.43,0,0,0-1.45,2c-.2.65-.12,1.33-.27,2v0s-.08,0-.12,0h0a3.93,3.93,0,0,0-2.84.07,4.06,4.06,0,0,0-1.61.59,2,2,0,0,0-2.5-1l-.18.08a1.73,1.73,0,0,0-.3.16,3,3,0,0,0-.54-1.08c-1.3-1.54-3-2.67-4.35-4.23a23,23,0,0,0-4.43-4h0c-.06-.39-.13-.79-.2-1.23a7.81,7.81,0,0,1-.25-.95l0,0a2.32,2.32,0,0,0,.83-1.88,4.4,4.4,0,0,0,.87-1.31c1.73-4.15-4.72-6.06-5.36-2.15a5.16,5.16,0,0,0,0,1.3,1.84,1.84,0,0,0-.27.23c-2.62,2.67-4.12,5.78-3.7,9.58a1.72,1.72,0,0,0,3.18.81,11.92,11.92,0,0,0,4.56,5.33,2.48,2.48,0,0,0,2.55.27,2.52,2.52,0,0,0,1,.72,6.11,6.11,0,0,0,3.13,2,2.42,2.42,0,0,0,2.15-.41,3.73,3.73,0,0,0,.3.43l.13.14a2.14,2.14,0,0,0,3.1,0,2.1,2.1,0,0,0,1.68.85,4.53,4.53,0,0,0,2.73-.6,2.56,2.56,0,0,0,1.27-2.27,1.25,1.25,0,0,0,.88-.09,8.31,8.31,0,0,1,1.62-.34,6.34,6.34,0,0,0,2-1.44c.51-.41,1-.83,1.48-1.27a4,4,0,0,0,1.3-2.93v0a6,6,0,0,0,.67-.44,10.61,10.61,0,0,0,1.82-2.28c.54-.8,1-1.62,1.54-2.45a5.23,5.23,0,0,0,.56-2.1A2.94,2.94,0,0,0,211,155a13.54,13.54,0,0,0,.73-2.66C214.67,151.49,214.32,146.48,210.82,146.54Z"/><path class="cls-9" d="M113.49,144.84a13.92,13.92,0,0,0-3.79-2.54c-3.32-1.58-9-2.83-12,0a3.65,3.65,0,0,0-2,2.78c-.61,3.21-1.46,7.23-.4,10.45a23.81,23.81,0,0,0,5.13,8.67,4,4,0,0,0,5,.46,5,5,0,0,0,2.22-.59l.17-.1a3.82,3.82,0,0,0,1.92-2.62c2.06-.44,3.63-2.54,4.44-4.43a3.6,3.6,0,0,0,.29-1.72,9.53,9.53,0,0,0,1.55-2.75,7,7,0,0,0,.31-1.26l.7-1.15C118.62,147.25,116,144.73,113.49,144.84Z"/><path class="cls-9" d="M203.57,155.07c-.31-5.28-3.67-12.51-9.69-12.51a3.41,3.41,0,0,0-1.2.22,4.84,4.84,0,0,0-4.72.1,10.1,10.1,0,0,0-3.2,2.47,3.67,3.67,0,0,0-1.13.13,3.83,3.83,0,0,0-2.55,4.7,3.63,3.63,0,0,0,.45.95,4.35,4.35,0,0,0,.22,5.44A11.25,11.25,0,0,0,184,162c1.58,2,3.88,5,6.54,6.2a2.93,2.93,0,0,0,2.11,2.29,3,3,0,0,0,3.28-1.41,2.68,2.68,0,0,0,.37-.76C201,166.56,203.83,159.59,203.57,155.07Z"/><path class="cls-10" d="M101.07,144.4a6.45,6.45,0,0,0-1.85.3,2.48,2.48,0,0,0-1.65,3.05c.41,1.39,2.34,2.37,3.62,1.39.12-.1.57-.41.55-.4a2.27,2.27,0,0,0,1.59-2.17A2.23,2.23,0,0,0,101.07,144.4Z"/><path class="cls-10" d="M101.09,152.22a.87.87,0,0,0,0,1.73A.87.87,0,0,0,101.09,152.22Z"/><path class="cls-10" d="M98,150a1.6,1.6,0,0,0,.06,3.19A1.6,1.6,0,0,0,98,150Z"/><path class="cls-10" d="M187.25,145.83a6.45,6.45,0,0,0-1.85.3,2.49,2.49,0,0,0-1.65,3.05c.41,1.39,2.34,2.37,3.62,1.39.12-.1.57-.41.55-.4a2.27,2.27,0,0,0,1.59-2.17A2.23,2.23,0,0,0,187.25,145.83Z"/><path class="cls-10" d="M187.27,153.65a.87.87,0,0,0,0,1.73A.87.87,0,0,0,187.27,153.65Z"/><path class="cls-10" d="M184.2,151.46a1.6,1.6,0,0,0,.06,3.19A1.6,1.6,0,0,0,184.2,151.46Z"/><path class="cls-11" d="M125.77,91.5a.14.14,0,0,0,0,.28c3.57.1,7.36.43,10.76-1,.37-.16.34-.76-.11-.74a45.3,45.3,0,0,0-5.78.77c.79-.17,1.58-.36,2.36-.59.1,0,.05-.19,0-.17-1.28.3-2.53.65-3.79,1C128,91.24,126.91,91.41,125.77,91.5Z"/><path class="cls-11" d="M136.36,89.21c1.92.39,2.94,0,4.9-.65,4.15-1.45,8.67-1.42,13-1.8,6.84-.58,12.64,4,19.37,3.43a.49.49,0,0,0,.11-1c-5.65-1.33-11.52-3-17.31-3.48-3.63-.3-7.66.55-11.26,1-3.06.37-5.68,2.13-8.79,2.12A.19.19,0,0,0,136.36,89.21Z"/><path class="cls-11" d="M264.05,37c-.94-7.22-1.34-17.19-6.52-22.85-9.62-10.51-24.95,3.21-32.48,9.88A164.79,164.79,0,0,0,206,43.92c-7.46,9.24-12.79,19.45-19.47,29.18-.13.19,0,.4.23.44-1.88.1-3.49,1.18-3.3,3.32.16,1.91.55,3.38-.29,5.22-.93,2-2.83,5.3-5.41,5.08a.4.4,0,0,0-.37.29,2.12,2.12,0,0,1-3.28,1.36c-.21-.11-.44.19-.25.35,1.22,1,2.69,1.57,3.79.1.72-1,.14-1,1.28-1.34a6.38,6.38,0,0,0,2.54-1.66c1.31,2.52,3.82,4.26,6,6,2.83,2.25,5.33,4.7,8,7.13.13.12.3,0,.23-.19-1.34-2.72-4-4.74-6.32-6.58-2.67-2.1-5.13-4.35-7.7-6.55a11.9,11.9,0,0,0,3.25-6.19,11.46,11.46,0,0,0-.2-3c-.24-1.91,2-2,3.29-2.63a.34.34,0,0,0-.09-.61,5.13,5.13,0,0,0-1-.06.42.42,0,0,0,.13-.07c5.33-6.62,8.84-14.49,14-21.3,5.33-7.1,10.9-14.39,17.5-20.35,8.45-7.63,18-18.69,30-20,8.87-1,11.36,9.65,12.63,16.24a135.87,135.87,0,0,1,2.43,28.24c-.2,10.06-3,20-5.07,29.77a101.27,101.27,0,0,0-2,12.11c-.24,2.84-.52,5.65-1,8.45.2-1.09-2,7.58-3.65,3.84-.46-1-2.23-.24-1.8.8.76,1.84,1.75,2.65,2.74,2.67-2.6,9-3.87,21.17-11.69,27-4.13,3.08-8.78,1.54-9.4,7.64,0,.05,0,.09,0,.14a16.39,16.39,0,0,0-3.16,6.41.18.18,0,0,0,.35.09,51,51,0,0,1,3.18-6.31.35.35,0,0,0,.29-.16c3.37-5.42,10.54-5.76,14-11.72,3.94-6.82,5.81-15.47,7.12-23.22,1.1-.41,2.14-1.73,2.8-3.7,1.76-5.21,1.61-10.89,2.46-16.27,1.06-6.67,2.73-13.25,4.09-19.86A110.15,110.15,0,0,0,264.05,37Z"/><path class="cls-11" d="M252,95.17c1.42,2.87,1.42,6.24,2.86,9a.39.39,0,0,0,.72-.11c.72-3.51-1.19-8-3-10.93-2-3.38-5.2-5.18-9.12-4.56-.13,0-.07.2,0,.22C247.6,89.28,250.3,91.64,252,95.17Z"/><path class="cls-11" d="M196.59,84.72c-.07,0,0,.17.08.12,4.78-2.67,9.5-5.54,12.88-9.94s2.33-10.47,4.26-15.58c0-.1-.11-.14-.16-.07-2.8,4.38-1.52,9.54-3.89,14.14C207.08,78.58,201.12,81.4,196.59,84.72Z"/><path class="cls-11" d="M222.68,45.88c-3.08,1.66-14.22,7.86-9.18,12.24.27.24.65-.15.39-.4-4.56-4.3,7.05-8.92,9-11.61C223,46,222.82,45.81,222.68,45.88Z"/><path class="cls-11" d="M66,129c-3-2.75-3.5-6.08-4.3-9.61a3,3,0,0,0,3.54-1.71c.1-.27-.24-.44-.45-.33-.94.49-1.54,1.18-2.67,1.25a2.09,2.09,0,0,1-.61-.08c-.13-.54-.28-1.08-.44-1.63-.66-2.23-3-4.13-4.67-6a27,27,0,0,1-.2-9.78c.6-3.32,2.49-5.9,4-8.82a.18.18,0,0,0,0-.19c4.43,3.47,3.56,9,4.32,15,.51,4.07,3.21,8.21,7.65,8.28a.3.3,0,0,0,.14-.55c-3.6-2.07-5.83-3.32-6.38-7.76-.34-2.66-.33-5.35-.66-8-.61-5-3.34-8.23-8.37-8.94a.1.1,0,0,0-.05.19A12.54,12.54,0,0,1,60,92a.18.18,0,0,0-.18,0c-4.69,4.41-5.58,11.46-4.47,17.6a2.27,2.27,0,0,1-.18-.25c-3-4.49-3.46-11.89-4.68-17.06-1.3-5.47-2.75-10.92-4-16.39S44.53,64.8,43.19,59.28s-4.13-10.78-5-16.52a.17.17,0,0,0,.31-.11c-.44-7.29-1.65-16.94,1.67-23.19,2.12-2,5.31-2.36,8.14-2.58,2.27-.18,4.95.58,7.13.1.15,0,.14-.23,0-.3-2.06-1.33-6.37-.51-8.64-.24a12.69,12.69,0,0,0-6.12,2.08c2.06-3.2,5.55-5.31,11.3-5.41,6.39-.1,11.85,3.19,15.78,7.94,2,2.43,4,4.84,6.06,7.26a30,30,0,0,0-18.34-5c-.11,0-.11.18,0,.18,7.66-.09,13.7,2.79,19.86,6.68q3.69,4.39,7.34,8.8C91.05,49,98.65,59.45,107.42,69.1c6.17,6.8,8.4,18.75,18,21.62.12,0,.2-.15.08-.2-7.41-3.33-9.13-10.46-13.2-16.78s-10-11-14.31-16.95C88.05,43.3,77.46,29.3,65.81,17.29c-5.81-6-16.3-7.59-23.33-3.17s-6.9,17.69-5,25.83a.34.34,0,0,0-.2.31c.1,4.58,1.48,8.53,3.05,12.81,1.91,5.22,2.71,10.68,3.64,16.14,2,11.76,5,23.43,7.6,35.1A20.64,20.64,0,0,0,56,113.56c1.57,1.88,2.9,2.74,3.6,5.28.65,2.37.75,4.74,1.63,7.08s2.67,3.93,4.38,5.52c5.09,4.72,7.15,9.67,9.08,16.19.27.9,1.78.72,1.67-.25C75.45,139.56,71.58,134.21,66,129Z"/><path class="cls-11" d="M84.24,183.19a.24.24,0,0,0,.43-.19c-1.91-6-4.5-11.71-6.23-17.8,0-.08-.09-.11-.17-.12a75.15,75.15,0,0,0,.34-9.35.25.25,0,0,0,0-.13,13.55,13.55,0,0,0-.65-4.17A7.94,7.94,0,0,0,76.6,148s-.14,0-.15,0a8.81,8.81,0,0,0,.49,3.16c.21.93.41,1.9.67,2.85a.34.34,0,0,0-.09.2c-.34,4.35-.68,9.19.3,13.47,0,.15.24.09.25,0,0-.49.08-1,.11-1.47A51.74,51.74,0,0,0,84.24,183.19Z"/><path class="cls-11" d="M100.23,198.4a62.2,62.2,0,0,1-6.19-4c.8.76,1.61,1.51,2.43,2.24A12.7,12.7,0,0,0,100.23,198.4Z"/><path class="cls-11" d="M108,201.51c-1.31-1.13-4.85-2.09-7.75-3.11a41.24,41.24,0,0,0,7.53,3.49A.23.23,0,0,0,108,201.51Z"/><path class="cls-11" d="M92.19,192.68a82.06,82.06,0,0,0-5.94-7.29c0-.06-.14,0-.09.1a57.69,57.69,0,0,1,4,5.32c-.07,0-.14.07-.07.14s.37.38.57.57A30.23,30.23,0,0,0,95,196.73c.09.09.26,0,.18-.14-.82-1.07-1.63-2.15-2.44-3.23.42.34.87.68,1.34,1Z"/><path class="cls-11" d="M203.5,196.83c-3.67,1.95-7.23,4.08-10.71,6.34a24,24,0,0,0-3.15-5.46c-2.25-2.86-4.7-5.19-5.39-8.92,0-.21-.36-.14-.36.06,0,2.87,1.48,5,3.32,7.06a28.25,28.25,0,0,1,3.65,4.85,15.11,15.11,0,0,1,1.19,2.88c-.37.24-.76.47-1.13.72a.13.13,0,0,0,.13.22l1.12-.61a12,12,0,0,0,1.75,3.74.2.2,0,0,0,.35-.16,28,28,0,0,0-1.33-4,122.27,122.27,0,0,0,10.75-6.4A.19.19,0,0,0,203.5,196.83Z"/><path class="cls-11" d="M206.94,193.41c-.08.06,0,.19.07.13a26.1,26.1,0,0,0,6.1-6.69c0-.08-.07-.13-.12-.07A32.35,32.35,0,0,1,206.94,193.41Z"/><path class="cls-11" d="M231.26,154.63c-5.2,5.55-8,13.31-10.71,20.36-2,3.34-3.9,6.69-5.92,10-.08.12.11.26.2.15,1.27-1.59,2.64-3.28,3.89-5.05-1.64,4.16-2.87,8.53-4.43,12.68a.26.26,0,0,0-.3.1c-1.63,2.75-3.15,5.55-4.75,8.3a.16.16,0,0,0-.19,0A151.93,151.93,0,0,0,197,218.41c-.09.14.13.3.24.17,2-2.33,4.11-4.83,6.07-7.43.31-.35.61-.71.93-1.05a0,0,0,0,0-.06-.06l-.2.23c.61-.85,1.21-1.7,1.78-2.57a43.76,43.76,0,0,0,8.57-14.3h0a76.3,76.3,0,0,0,7.12-17.68.31.31,0,0,0,0-.22,15.63,15.63,0,0,0,.93-2.58.23.23,0,0,0-.24-.29c3-6,5.92-12,9.46-17.78A.18.18,0,0,0,231.26,154.63Z"/><path class="cls-11" d="M200.38,219a23.23,23.23,0,0,0-3.74,2.8l-1.76,1.57a4.69,4.69,0,0,0,0-1.45c-.1-.56-.94-.48-1.06,0-.32,1.31-.82,2.55-1.17,3.85a.41.41,0,0,0,.69.38,5.19,5.19,0,0,0,.84-1,1.15,1.15,0,0,0,.38-.17c.73-.53,1.37-1.19,2.05-1.78,1.4-1.25,2.67-2.62,4.06-3.87C200.88,219.18,200.61,218.87,200.38,219Z"/><path class="cls-11" d="M87,189.55a8.26,8.26,0,0,1-1.06-1.69s0,0,0,0a8.54,8.54,0,0,0,1.07,1.7S87,189.56,87,189.55Z"/><path class="cls-11" d="M87.79,193.05a63.47,63.47,0,0,1-3.92-7.93.08.08,0,0,0-.16,0c0,2.15,1.2,4.17,2.22,6,1.48,2.64,3.23,5.18,4.91,7.69a.11.11,0,0,0,.2-.06l.33.45-.31-.48A43.64,43.64,0,0,0,87.79,193.05Z"/><path class="cls-11" d="M100.05,213.57a.19.19,0,0,0,.32-.19c-1.75-4.31-5.19-7.94-7.58-12,.9,1.31,1.79,2.61,2.72,3.9,0,0,.1,0,.07,0-1-1.55-2.11-3.08-3.18-4.6l-.12-.16c-.07-.13-.14-.24-.2-.36s0,0-.08,0c-.21-.29-.41-.57-.63-.85l.58.89s0,0,0,.06C94.09,204.65,96.6,210,100.05,213.57Z"/><path class="cls-11" d="M186.05,237.74a1.61,1.61,0,0,1,.09-.29c0,.1-.09.19-.11.29Z"/><path class="cls-11" d="M139.38,215.58a21.57,21.57,0,0,1,2.22,8.19c0,.08.13.08.13,0a14.56,14.56,0,0,0-2.23-8.27C139.46,215.42,139.33,215.49,139.38,215.58Z"/><path class="cls-11" d="M105,208.88c.29-1.17,5.66-2.3,6.25-3.36s1.49-1.55,1.92-2.48a.19.19,0,0,0-.21-.27c-2.1.62-8.53,4.16-8.12,6.11C104.85,209,105,209,105,208.88Z"/><path class="cls-11" d="M120.48,187.74c.12-.19-.12-.35-.29-.27a44.72,44.72,0,0,0-7.1,4.69c-1.87,1.41-3.43,3.24-3.34,5.68a.07.07,0,0,0,.13,0c.65-3,2.77-4.73,5.26-6.28C116.92,190.47,119.34,189.59,120.48,187.74Z"/><path class="cls-11" d="M125.89,180.08c-6.67,3.52-15.89,4.59-20.37,11.27,0,.05,0,.08.07.05,5.79-5.37,13.86-7,20.56-10.88C126.44,180.36,126.18,179.93,125.89,180.08Z"/><path class="cls-11" d="M103.58,174.68a.25.25,0,0,0,0-.5c-6.31-.31-12-1.7-16.1-6.86-3.41-4.3-3.79-9.72-4.62-14.91,0,0-.06,0-.06,0C81.64,165,90.93,175.29,103.58,174.68Z"/><path class="cls-11" d="M213.58,163c-4,15-19.68,16.1-32.05,11.76-.27-.09-.43.33-.19.46,12.49,6.79,29,2.39,32.34-12.19A.05.05,0,0,0,213.58,163Z"/><path class="cls-11" d="M214.6,158.53a20,20,0,0,0,.62-4.5s-.07,0-.07,0a19.87,19.87,0,0,1-.59,4.48S214.59,158.56,214.6,158.53Z"/><path class="cls-11" d="M219.09,167.18c2.42-3.83,1.81-11.22-.77-14.82-.3-.41-1.08-.15-.86.38a20.94,20.94,0,0,1,1.76,7.4c.1,2.35-.68,4.62-.59,6.93A.25.25,0,0,0,219.09,167.18Z"/><path class="cls-11" d="M218.55,170.15c-.89,2.13-2.54,4-3.1,6.24,0,.14.17.28.28.15a17.51,17.51,0,0,0,2.9-6.36C218.64,170.13,218.57,170.1,218.55,170.15Z"/><path class="cls-11" d="M213.2,179.15a32.29,32.29,0,0,0-6.83,7,.14.14,0,0,0,.19.19,32.09,32.09,0,0,0,6.77-7.09C213.39,179.2,213.27,179.09,213.2,179.15Z"/><path class="cls-11" d="M201.1,190a21.29,21.29,0,0,0,2.45-1.41c.25-.16,0-.5-.24-.39a7.69,7.69,0,0,0-2.39,1.49C200.79,189.79,200.92,190.05,201.1,190Z"/><path class="cls-11" d="M176.08,205c2.24.46,4.39,1.3,6.59,1.93.13,0,.19-.14.08-.21a14.3,14.3,0,0,0-6.64-2C176,204.7,175.94,205,176.08,205Z"/><path class="cls-11" d="M191.31,219.79a.26.26,0,0,0,.5,0c.48-1.89-.33-4.83-1.1-6.56a6.34,6.34,0,0,0-4.84-3.81c-.1,0-.14.13,0,.15a6.33,6.33,0,0,1,5,4.64C191.4,216,190.76,218,191.31,219.79Z"/><path class="cls-11" d="M194.84,210a47.56,47.56,0,0,1-1.6,8.55.38.38,0,0,0,.64.35c2.65-2.17,1.9-6,1.61-8.91A.33.33,0,0,0,194.84,210Z"/><path class="cls-11" d="M174.74,174.49a25.36,25.36,0,0,0-1.63,6.25c0,.14.18.24.24.1a25.39,25.39,0,0,0,1.61-6.26C175,174.45,174.8,174.36,174.74,174.49Z"/><path class="cls-11" d="M172.92,184.59c.37,1.53,1,2.95,1.48,4.45,0,0,.07,0,.06,0-.42-1.51-1.08-2.93-1.44-4.46A.05.05,0,1,0,172.92,184.59Z"/><path class="cls-11" d="M184.7,202.56c-2.91-1.07-4.21-3.69-5.95-6.05,0,0-.11,0-.08,0,1.55,2.14,3.09,5.6,6,6.12A.06.06,0,0,0,184.7,202.56Z"/><path class="cls-11" d="M184.09,196.21a.18.18,0,0,0,.28-.23c-2-3.43-6-5.9-6.53-10.12,0,0,0,0-.05,0C177.75,190.21,181,193.49,184.09,196.21Z"/><path class="cls-11" d="M133.55,182.17a12.06,12.06,0,0,0-1,2.43l-1.6,1.77s0,.13.08.08l1.37-1.36a26,26,0,0,1-1.44,4.37c-.07.12.12.23.18.1a29.32,29.32,0,0,0,1.8-5,57.7,57.7,0,0,0,4.55-5.07c.09-.12-.07-.29-.17-.17-1.38,1.56-2.79,3.11-4.19,4.65a17.1,17.1,0,0,1,.62-1.69A.1.1,0,0,0,133.55,182.17Z"/><path class="cls-11" d="M190.62,130.1a.06.06,0,1,0,0-.12c-5.59,2-9.09,5.84-12.66,10.47-2.21,2.87-4.25,6.63-6.79,9.67a24,24,0,0,1-5.61,4.42s0,0,0,.05l-.65.26a.15.15,0,0,0,.08.29,11.15,11.15,0,0,0,5.45-3.47c6.85-5.83,10.33-15.38,18.91-19.5,0,0,0-.1,0-.08-7.42,2.94-11.19,9.93-16.07,15.77.33-.55.67-1.09,1-1.63C178.05,139.69,183.3,132.84,190.62,130.1Z"/><path class="cls-11" d="M195.78,129c3.42-.59,7,.53,10.34-.17.14,0,.13-.24,0-.27a27.17,27.17,0,0,0-10.4.23C195.58,128.83,195.65,129,195.78,129Z"/><path class="cls-11" d="M95.81,130.09s0,.09,0,.07c4.06-1.6,7.2-2.68,11.37-.61s7,5.75,9.68,9.2c3.54,4.53,6.18,10.24,11,13.56.06,0,.14-.06.08-.1C120.71,146.74,108.32,117.26,95.81,130.09Z"/><path class="cls-11" d="M136.27,95.65c.09-.1-.06-.24-.16-.14-8.68,7.91-20.08,11.27-29.26,18.45-.11.09,0,.27.11.19C116.44,107.75,128.55,104.46,136.27,95.65Z"/><path class="cls-11" d="M110.82,118.85c5.26-6.93,13-9.37,20.07-13.81.07,0,0-.15-.07-.11-7.06,3.52-15.88,6.73-20.08,13.85C110.71,118.84,110.79,118.89,110.82,118.85Z"/><path class="cls-11" d="M140.07,103.38c-6.39,8.43-22.17,7.75-26.23,18.1,0,.09.11.17.17.09,6.79-8.94,20.1-8.56,26.18-18.1A.08.08,0,0,0,140.07,103.38Z"/><path class="cls-11" d="M140.62,111.66c-2.83,1-5.75,1.83-8.56,2.93a0,0,0,0,0,0,0c2.82-1.06,5.76-1.78,8.56-2.91C140.68,111.71,140.66,111.65,140.62,111.66Z"/><path class="cls-11" d="M124,96.85a63.59,63.59,0,0,0-12.12,8.76c-.11.09,0,.25.14.18,4.73-2.73,8.58-6.7,13.69-8.8,3.89-1.6,7.74-2.49,10.86-5.49.08-.07,0-.21-.12-.14C132.52,94.1,128.05,94.71,124,96.85Z"/><path class="cls-11" d="M171,93.17a.1.1,0,0,0-.19,0c.38,8.34,8.5,11,15.15,13.6.11,0,.18-.14.07-.2-2.72-1.52-5.6-2.74-8.32-4.28C174.11,100.25,172.2,97.1,171,93.17Z"/><path class="cls-11" d="M164.12,93.32c0-.07-.12-.08-.12,0-1.78,14.29,14.56,20.29,26.28,19.86,0,0,0,0,0,0C178.38,113.39,164,106.91,164.12,93.32Z"/><path class="cls-11" d="M159.17,96.52c0-.29-.43-.28-.45,0C158,109.8,170.05,113.91,181,116.2c.13,0,.18-.18.05-.21C170.2,113.22,159.1,109.79,159.17,96.52Z"/><path class="cls-11" d="M178.52,118.09c-4.61-1.56-12.64-.06-16.08-3.41-.05-.05-.14,0-.1.08,2.09,2.9,5.26,2.69,8.6,2.75,7.47.13,12.4,5.35,19.14,7.33.36.1.5-.39.23-.58A51.17,51.17,0,0,0,178.52,118.09Z"/><path class="cls-11" d="M176.21,92.38c0-.13-.2-.08-.22,0-.38,3.9,3.6,5.74,6.56,7.28A27.53,27.53,0,0,1,195,112.11c.08.14.29,0,.26-.12-1.06-4.45-4.45-7.32-8-10S177.09,97.22,176.21,92.38Z"/><path class="cls-11" d="M193.52,105.9c0,.07.17,0,.14-.06-2.48-5.83-8.89-8.14-12.26-13.26a.15.15,0,1,0-.25.15C183.9,98.43,190.59,100.34,193.52,105.9Z"/><path class="cls-11" d="M186.58,86.87a43.25,43.25,0,0,1,7.53,5.43c2.19,2,4.43,4.1,7.15,5.3a.18.18,0,0,0,.22-.29c-4.14-4.15-8.88-9.4-14.75-10.81A.2.2,0,0,0,186.58,86.87Z"/><path class="cls-11" d="M189.06,84.22a0,0,0,0,0,0,0,20,20,0,0,0,9.42,6.42c.08,0,.11-.1,0-.13A22.46,22.46,0,0,1,189.06,84.22Z"/><path class="cls-11" d="M125.09,91.66c.56-.26,1.15-.45,1.71-.72,0,0,0,0,0,0-.56.26-1.15.45-1.71.72C125.07,91.65,125.08,91.67,125.09,91.66Z"/><path class="cls-11" d="M126.07,93.08a50.93,50.93,0,0,0-18.64,12.69s0,0,0,0a50.47,50.47,0,0,1,18.79-12.15C126.59,93.51,126.42,93,126.07,93.08Z"/><path class="cls-11" d="M121.81,90.49c-5.91,1.81-10.7,6-14.48,10.79,0,0,0,.07,0,0a32.07,32.07,0,0,1,14.76-9.75A.56.56,0,0,0,121.81,90.49Z"/><path class="cls-11" d="M104.46,100c0,.12.2.16.21,0,.88-7.24,7.16-9.49,12.1-13.64.08-.06,0-.19-.1-.13C111.93,89.77,103.82,92.87,104.46,100Z"/><path class="cls-11" d="M143.94,91.93c-4.29,7.17-.86,15.81-2.92,23.66-1,1-1.84,2.13-2.88,3.08a24.21,24.21,0,0,1-4.24,3.09c-.08,0,0,.14.06.11a19.75,19.75,0,0,0,6.6-4.81c-.07.19-.12.39-.2.59-1.88,4.61.83,6.66-.12,11.48-.62,3.16-2.16,4.85-1.24,8.11,0,.07.11,0,.1,0-.59-3.31,1.56-6.45,2.19-9.58.78-3.79-.9-7.38.66-11.32,3.07-7.75-1.4-16.32,2.2-24.27A.12.12,0,0,0,143.94,91.93Z"/><path class="cls-11" d="M140.51,141.81c.18,0,.18-.28,0-.27A.14.14,0,0,0,140.51,141.81Z"/><path class="cls-11" d="M151.78,93.35c-3.62,3-2.11,11.82-1.35,15.78a.15.15,0,0,0,.29,0,59.85,59.85,0,0,0,0-7,27.74,27.74,0,0,1,1.57-8.54C152.4,93.31,152,93.17,151.78,93.35Z"/><path class="cls-11" d="M146.28,123.07c.5,2.53,2.79,3.87,1.48,7.12-.65,1.61-1.42,2.34-1.36,4.14a.17.17,0,0,0,.34,0c1-3.77,2.77-5.33,1.22-9.17-1.77-4.36,1.8-7.89,1.71-12.3,0-.07-.11-.07-.11,0C149.6,116.48,145.59,119.56,146.28,123.07Z"/><path class="cls-11" d="M155,93.16c.82,7.4,5.13,14.88,3.52,22.39-1.24,5.76-4.64,8.66-2.77,14.84,0,.13.23.07.21-.06-1.12-6,2.32-10.71,3.4-16.31a5.4,5.4,0,0,0,2.68,2.61c.16.08.41-.1.27-.28-.55-.73-1.21-1.36-1.73-2.11a7.22,7.22,0,0,1-.94-2.43c.38-6.16-2.54-13-4.36-18.7C155.18,93,154.94,93,155,93.16Z"/><path class="cls-11" d="M160.31,117.11c-1.29,1.63-2.46,4.47.1,5.57a18.2,18.2,0,0,0,3.59.76,9.21,9.21,0,0,1,2.09.71c.66.32,1.2,1,1.94,1.11a.33.33,0,0,0,.38-.4c-.3-1.9-4-2.39-5.51-2.69a5.72,5.72,0,0,1-2.6-.89c-.85-.73,0-3.19.17-4.08C160.49,117.11,160.37,117,160.31,117.11Z"/><path class="cls-11" d="M161.94,148.83a.08.08,0,0,0,.15,0c1.68-5.33,4.33-10.6,9-13.91.07,0,0-.15-.07-.12C165.56,137.54,163.08,143.12,161.94,148.83Z"/><path class="cls-11" d="M182.59,128.37c-2.28,1.18-4.5,2.47-6.79,3.63-.06,0,0,.12,0,.09,2.36-1,4.94-1.86,6.88-3.55C182.82,128.46,182.69,128.32,182.59,128.37Z"/><path class="cls-11" d="M115,124a32.07,32.07,0,0,1,3.06,2.41c.13.11.4,0,.32-.2a7,7,0,0,0-5.78-4.23c-.28,0-.32.35-.12.49C113.26,123,114.14,123.45,115,124Z"/><path class="cls-11" d="M120.13,129a2.3,2.3,0,0,0,.79,1.05c.1.1.24-.05.15-.15l-.63-1C120.38,128.72,120.06,128.82,120.13,129Z"/><path class="cls-11" d="M133.56,149.73c-.17-4.77-3.94-8.28-6.41-12-.13-.2-.4,0-.31.19,1.91,4.22,5.43,7.24,6.46,11.88A.13.13,0,0,0,133.56,149.73Z"/><path class="cls-11" d="M139.05,164c.84-1.85-5.18-4.7-5.36-6.68a.12.12,0,0,0-.24,0c-.1,2,4.19,4.86,5.11,6.69A.29.29,0,0,0,139.05,164Z"/><path class="cls-11" d="M160.47,162.82a.07.07,0,0,0,0-.13c-5-1.78-10.36-1.09-15.52-1.86-.17,0-.3.22-.12.3C149.77,163.33,155.41,161.46,160.47,162.82Z"/><path class="cls-11" d="M143.59,156.57c1.8-.58,4.36-.08,6.19.14a18.82,18.82,0,0,0,4.8-.09c.07,0,.07-.11,0-.1a51,51,0,0,1-5.52-.39,48.16,48.16,0,0,0-5.51.17C143.34,156.3,143.4,156.63,143.59,156.57Z"/><path class="cls-11" d="M155.26,156.23a3.77,3.77,0,0,0,1.72-.39s0,0,0,0a3.89,3.89,0,0,1-1.71.36A0,0,0,1,0,155.26,156.23Z"/><path class="cls-11" d="M124.15,225.39l-.37,0a.56.56,0,0,0-.35-.11.26.26,0,0,0-.21.39.4.4,0,0,0-.37,0,5.46,5.46,0,0,0-6.54-2.34,1.88,1.88,0,0,0-.24.14l-.18-.19c-.4-.43-1.09.28-.63.66l.12.11a1.56,1.56,0,0,0,.79,1s.07,0,0-.05c-.09-.24-.19-.47-.29-.7a1.66,1.66,0,0,0,.33-.06.27.27,0,0,0,.11-.44l-.19-.2a5.73,5.73,0,0,1,3.4-.06c1.83.53,2.73,2.19,3.38,3.82a.2.2,0,0,0,.38-.06,3.89,3.89,0,0,0-.09-.47.41.41,0,0,0,.17-.07,1.81,1.81,0,0,1,.5-.33.2.2,0,0,0,0-.35h0a.15.15,0,0,0,.1-.16,1.57,1.57,0,0,0,0-.23l.21,0C124.24,225.56,124.24,225.4,124.15,225.39Z"/><path class="cls-11" d="M132.56,234.25h-.34s0,.07,0,.07h.34A0,0,0,1,0,132.56,234.25Z"/><path class="cls-11" d="M131.67,235.56h.23a.23.23,0,0,0,.15-.39c0-.13,0-.27,0-.4a.25.25,0,0,0,0-.27.28.28,0,0,0-.18-.48.29.29,0,0,0-.19.48,1,1,0,0,0-.34.66A.33.33,0,0,0,131.67,235.56Z"/><path class="cls-11" d="M164.06,224.72a.08.08,0,0,0,.09.09,4.29,4.29,0,0,0,.62,0,.07.07,0,0,0,0-.15,4.42,4.42,0,0,0-.63,0C164.08,224.63,164.06,224.67,164.06,224.72Z"/><path class="cls-11" d="M166,222.39l-.29.11c-.73.28-.05,1.31.48.77l.1-.1a.31.31,0,0,0,0-.43.59.59,0,0,1,0-.13A.24.24,0,0,0,166,222.39Z"/><path class="cls-11" d="M162.67,230.41a2.47,2.47,0,0,0-1.77-.53.51.51,0,0,0-.24,1,3,3,0,0,0,1.17.26,5.68,5.68,0,0,0,1,.63.1.1,0,0,0,.09-.17c-.24-.15-.47-.32-.7-.49a1.3,1.3,0,0,0,.49-.26A.27.27,0,0,0,162.67,230.41Z"/><path class="cls-11" d="M176.16,229.38a1.71,1.71,0,0,0-.23-.13c0-.25-.21-.48-.51-.35l-.53.23a.56.56,0,0,0-.24.63s0,.05,0,.07a.63.63,0,0,0,.63.46h.05c.12.74.63,1.2,1.67.92a.19.19,0,0,0,0-.37c-.53-.15-1-.29-1.18-.66a3.18,3.18,0,0,0,.36-.24A.38.38,0,0,0,176.16,229.38Z"/><path class="cls-11" d="M123.57,158.45a.32.32,0,0,0-.59-.06c-.6,1.26-1,2.55-1.74,3.76a25.56,25.56,0,0,0-2.32,3.62c-.12.29.29.56.53.39a11.11,11.11,0,0,0,2.87-3.41A6.42,6.42,0,0,0,123.57,158.45Z"/><path class="cls-11" d="M195,140.11c-6.3-.5-12.58,3.07-16.51,7.67,0,0,0,0,0,0-3.79,2.69-6.12,8.16-6.78,13.06a11.26,11.26,0,0,0-1.12,6.44c0,.08.14.09.13,0a11.81,11.81,0,0,1,.82-4.74,19.48,19.48,0,0,0,0,2.66.08.08,0,0,0,.16,0,15.6,15.6,0,0,1,.47-3.45c.37,2.74,3.63,5.79,6,5.89a.5.5,0,0,0,.42-.75,19.2,19.2,0,0,0-2.89-2.73c-1.24-1.19-1.57-2.65-2.31-4.12a.49.49,0,0,0-.37-.27,44.68,44.68,0,0,1,5.82-8.77,21.92,21.92,0,0,1,1.83-1.9c-6,6.27,5.13,19.72,11.55,21.32a.47.47,0,0,0,.63.39c12.19-3.43,14-18.86,6.58-27.43,4.1,1.12,8.09,3.21,12.34,5.18-2.5,10.85-8,22.39-20.93,22.55-4.95.06-15.37-6.44-19.62-2.19a.12.12,0,0,0,.09.2c9.18.08,17.53,7.44,26.78,3.19,8.67-4,14.26-13.58,15.26-23l.23.1c.16.07.34-.13.2-.25s-.25-.2-.37-.3c.13,0,.26.09.39.11a.77.77,0,0,0,.72-1.29c-.31-.3-.66-.58-1-.86,0-.22,0-.43,0-.65a.61.61,0,0,0-1.17-.2,47.37,47.37,0,0,0-10.76-5,12.65,12.65,0,0,0-5.71-.7l-.17,0,0,0A.76.76,0,0,0,195,140.11Zm-6.32,2.26a.29.29,0,0,0,.09-.25,24.91,24.91,0,0,1,2.86-.4c-.39.23-.76.47-1.13.74a22.21,22.21,0,0,0-2.85.86C188,143,188.33,142.7,188.66,142.37Zm6-.77a.91.91,0,0,0,.17.17c.11.07.2.15.3.22a22.59,22.59,0,0,0-2.85.16A10,10,0,0,1,194.67,141.6ZM180,148.08c.17-.27.35-.53.53-.8s-.19-.55-.45-.44-.42.22-.63.33a23.45,23.45,0,0,1,6.83-4.23A29.63,29.63,0,0,0,180,148.08Zm12.75,21.67a.55.55,0,0,0-.13-.18c-6.83-4.95-14.45-13.07-9.86-21.75a.11.11,0,0,0-.15-.15,8.11,8.11,0,0,0-1.39,1c1.87-1.68,3.9-3.15,5.81-4.78a19.29,19.29,0,0,1,2.75-.81c-.14.12-.29.21-.42.34s0,.38.21.26a12.33,12.33,0,0,1,1.33-.85,19.22,19.22,0,0,1,5.24-.08C205.85,150.1,204.42,164.92,192.75,169.75Zm9.4-26.8a29,29,0,0,0-3.88-.78c-.16-.15-.31-.33-.48-.48A20.15,20.15,0,0,1,202.15,143Z"/><path class="cls-11" d="M80.1,131.13a.39.39,0,0,0,.22-.56c-.39-.71-1-.9-1.77-1.24a27.49,27.49,0,0,1-3.37-1.94c-2.77-1.84-4.77-4.62-2.62-7.85,0,0,0,0,0,0-1.92,2.59-1.62,4.69.26,7.22a13,13,0,0,0,3.59,3.09C77.36,130.46,78.91,131.5,80.1,131.13Z"/><path class="cls-11" d="M93,114.51a.26.26,0,0,0-.26-.43c-4.08,1.13-8.11-.15-11.27,3.23-1.58,1.69-3.33,5.19-1.68,7.33a.14.14,0,0,0,.26-.08,9,9,0,0,1,4.2-7.74C87,115.17,90.69,117.2,93,114.51Z"/><path class="cls-11" d="M94.88,97.76c-.72,0-1,1.23-.16,1.33,5.24.63,9.94,6.94,3.7,10a4.92,4.92,0,0,0-2.69,3.1.13.13,0,1,0,.22.12c1.62-2.83,7.79-2.52,7-7a9.73,9.73,0,0,0-3.31-5.63,4.09,4.09,0,0,0-2.19-1.25A2.89,2.89,0,0,0,98,98.2a3.15,3.15,0,0,0,1.07-2.15c.42-4.15-.3-7.22,2.36-11,2.8-3.93-.13-9.83-3.32-12.49a.37.37,0,0,0-.58.46c2.46,5,5.92,8.73,2.09,14.14C97.43,90.3,101,97.25,94.88,97.76Z"/><path class="cls-11" d="M207.62,87c-.91,3.45-.53,6.19.43,9.59.76,2.69,1.5,5.45.79,8.25-.53,2.06-1.41,3.86-1.68,6-.67,5.42,5.63,5.28,8.74,3.08.18-.13.07-.45-.17-.37a12.67,12.67,0,0,1-3.33.81c-5.39.68-3.49-5-2.88-7a19.25,19.25,0,0,0,1.08-4.78c.37-5.36-3.41-10.15-2.81-15.59C207.8,86.88,207.64,86.87,207.62,87Z"/><path class="cls-11" d="M220.85,118.54c0,.07,0,.07,0,0Z"/><path class="cls-11" d="M221.27,118.43c0,.27.16-.31.2-.51a7.19,7.19,0,0,0,0-1.91,19.5,19.5,0,0,0-.94-5c-.27-.77-.75-2.16-1.76-2.22-1.27-.06-2,2.27-2.36,3.12a0,0,0,0,0,.08,0c.22-.49,1.62-3.68,2.5-2.49.67.91.68,2.28.87,3.34.24,1.34.35,2.69.51,4a6.67,6.67,0,0,0,.26,1.24,1.62,1.62,0,0,0,.17.32.45.45,0,0,1,0,.1s0-.05,0-.1A.22.22,0,0,0,221.27,118.43Z"/><path class="cls-11" d="M224.14,118.66a.06.06,0,0,0,0,.11c6.19-1.14,8.09,4.37,5.47,9.17a.63.63,0,0,0,.39.91c1.41.24,2.83.29,4.24.48a7.15,7.15,0,0,1,2.27.66c1.37.69.33,2.59.21,3.65,0,.4.51.53.74.29,1.26-1.24,1.63-3.6,0-4.75-1.82-1.26-4.22-1.17-6.37-1.42C233.51,122.39,230.93,115.94,224.14,118.66Z"/><path class="cls-11" d="M243,113.86s0,0,0,0c4.14-2.7,8.8-9.31,4.76-14.1-.21-.25-.56,0-.5.3.61,2.62,1.29,4.52.49,7.25A13.07,13.07,0,0,1,243,113.86Z"/><path class="cls-11" d="M230.53,101.94c-1.35,2.34-2.81,5.9-1,8.41,2.1,3,6.16.4,7.89-1.56a.46.46,0,0,0-.57-.7c-1.42.72-4.77,3-6.11,1s-.44-5,.25-7C231.05,101.85,230.66,101.71,230.53,101.94Z"/><path class="cls-11" d="M62.56,21.61c-4.52-3-11-2.2-16.05-1.26-.11,0-.08.2,0,.19,5.1-.73,11.14-1.13,15.73,1.58C62.6,22.31,62.86,21.81,62.56,21.61Z"/><path class="cls-11" d="M231.14,32.15c2.29-.66,6.15-.49,9.38-1.16a76.28,76.28,0,0,1-7.71,5c-.25.14,0,.49.23.37a79.18,79.18,0,0,0,17-10.73c.12-.1,0-.35-.18-.28a34.75,34.75,0,0,0-4.32,2.25.1.1,0,0,0-.15,0,5.85,5.85,0,0,1-.47.4c-.63.4-1.26.8-1.88,1.22-3.64,1.8-8.09,1.45-12,2.81A.06.06,0,0,0,231.14,32.15Z"/><path class="cls-11" d="M246.71,19A75.91,75.91,0,0,0,237,22.38a.34.34,0,0,0-.06.53,12.63,12.63,0,0,0,5,2.33.26.26,0,0,0,.13-.5,14.1,14.1,0,0,1-4.31-2.08c2.55-1.85,6.1-2.43,9-3.55C246.84,19.07,246.8,18.94,246.71,19Z"/><path class="cls-11" d="M137.34,187.14a45.3,45.3,0,0,0-4,4c-1,1.09-2.32,2.36-2.74,3.79a.23.23,0,0,0,.34.25c1.22-.84,2-2.38,2.93-3.53a44,44,0,0,1,3.88-4.19C138,187.26,137.59,186.92,137.34,187.14Z"/><path class="cls-11" d="M137.07,189.93a32.9,32.9,0,0,0-3.11,3.56,7.09,7.09,0,0,0-1.78,3.23.36.36,0,0,0,.54.3,10.83,10.83,0,0,0,2.07-2.91c.85-1.33,1.81-2.58,2.64-3.92C137.57,190,137.25,189.75,137.07,189.93Z"/><path class="cls-11" d="M136.34,193.93a.08.08,0,0,0-.13-.08,61.91,61.91,0,0,0-4,6.27c0,.1.09.2.16.11A60.5,60.5,0,0,0,136.34,193.93Z"/><path class="cls-11" d="M137.27,195.86c-1.1,1.33-2.13,2.69-3.17,4a37.61,37.61,0,0,0-3.26,4.15.53.53,0,0,0,.74.71c1.32-.83,2.22-2.47,3-3.78,1-1.64,1.85-3.36,2.85-5C137.5,195.89,137.35,195.77,137.27,195.86Z"/><path class="cls-11" d="M135.9,201.31q-1.41,1.62-2.84,3.22c-.85.94-2,1.9-2.35,3.16a.33.33,0,0,0,.48.36,7.39,7.39,0,0,0,2.27-2.56c.93-1.31,1.86-2.61,2.82-3.9C136.44,201.37,136.08,201.11,135.9,201.31Z"/><path class="cls-11" d="M163.23,188.79c-.53-.75-1-1.52-1.51-2.32-.24-.4-.94-1.42-.68-1.94.07-.14-.13-.31-.24-.18-1.26,1.48,1.17,3.69,2.12,4.7C163.07,189.21,163.37,189,163.23,188.79Z"/><path class="cls-11" d="M167.6,198.94a.18.18,0,0,0,.28-.23,50.49,50.49,0,0,0-6.68-8.59.27.27,0,0,0-.41.34A50.84,50.84,0,0,0,167.6,198.94Z"/><path class="cls-11" d="M161.46,193.71c-.05,0-.12,0-.07.08a51.72,51.72,0,0,1,6.28,7.49.12.12,0,0,0,.2-.13A25.7,25.7,0,0,0,161.46,193.71Z"/><path class="cls-11" d="M166.68,203.05a.13.13,0,0,0,.2-.16,58.76,58.76,0,0,0-5.32-7.16c-.11-.13-.26,0-.2.16A27,27,0,0,0,166.68,203.05Z"/><path class="cls-11" d="M168.13,209.08a10.14,10.14,0,0,0-2.21-3.89,33.91,33.91,0,0,1-2.71-4,.3.3,0,0,0-.56.16,7.11,7.11,0,0,0,1.79,3.69c1.09,1.45,2.19,2.89,3.33,4.29C167.92,209.47,168.18,209.26,168.13,209.08Z"/><path class="cls-11" d="M166.8,211.52a31,31,0,0,0-3.28-5.18.18.18,0,0,0-.31.13,4.34,4.34,0,0,0,1,2.36,17.24,17.24,0,0,0,2.19,2.9A.22.22,0,0,0,166.8,211.52Z"/><path class="cls-11" d="M161.74,181.21c-1.11.93-.24,2.44.29,3.47a15.33,15.33,0,0,0,4,5,.23.23,0,0,0,.36-.29c-.77-1.39-1.75-2.64-2.62-4-.41-.63-2.4-3.18-1.73-4A.19.19,0,0,0,161.74,181.21Z"/><path class="cls-11" d="M163.74,182.61a8.89,8.89,0,0,0-1.43-2.07c-.13-.12-.32.08-.2.2a8.49,8.49,0,0,1,1.4,2C163.59,182.91,163.83,182.77,163.74,182.61Z"/><path class="cls-11" d="M161.09,176.54c1.5,2.48,3.23,4.81,5,7.14,0,0,0,0,0,0-1.73-2.33-3.46-4.66-5-7.14A0,0,0,1,0,161.09,176.54Z"/><path class="cls-11" d="M168.58,184.25c-1.83-2.76-3.82-5.4-5.66-8.16-.09-.14-.31,0-.22.13a62.61,62.61,0,0,0,5.7,8.18A.12.12,0,0,0,168.58,184.25Z"/><path class="cls-11" d="M164.47,176.19a.1.1,0,0,0,.13-.14c-1-1.1-1.86-2.27-2.8-3.41-.09-.1-.25,0-.19.15A14.81,14.81,0,0,0,164.47,176.19Z"/><path class="cls-11" d="M167.39,177.4a30.54,30.54,0,0,0-4.92-6.51c-.11-.11-.32.05-.22.17,1.66,2.16,3.47,4.17,5,6.43A.08.08,0,1,0,167.39,177.4Z"/><path class="cls-11" d="M164.69,170.79c-.46-.7-1.1-1.34-1.55-1.95a.14.14,0,0,0-.24.14A20,20,0,0,0,164,171.2a12.54,12.54,0,0,0,2.79,3.36c.19.14.45-.14.32-.33C166.3,173.09,165.47,172,164.69,170.79Z"/><path class="cls-11" d="M169.85,174.94a18,18,0,0,0-3.91-5.9.23.23,0,0,0-.35.28c1.24,2,2.66,3.83,3.95,5.76C169.64,175.24,169.93,175.13,169.85,174.94Z"/><path class="cls-11" d="M170.78,171.45A45,45,0,0,1,168,166a.25.25,0,0,0-.27-.15,3.09,3.09,0,0,1-.1-1.89c.06-.24-.33-.34-.38-.09a3.5,3.5,0,0,0,.28,2.12.25.25,0,0,0,0,.15,23,23,0,0,0,3,5.47C170.63,171.76,170.88,171.62,170.78,171.45Z"/><path class="cls-11" d="M137.73,182.74a32.17,32.17,0,0,0-5.39,5.67c0,.06,0,.13.08.08a75.39,75.39,0,0,1,5.44-5.58C138,182.82,137.83,182.67,137.73,182.74Z"/><path class="cls-11" d="M137.53,175.74a20.35,20.35,0,0,0-5.76,6.78.17.17,0,0,0,.3.16c1.6-2.51,4.1-4.22,5.79-6.62C138,175.87,137.72,175.6,137.53,175.74Z"/><path class="cls-11" d="M137,174.3c.09-.09-.05-.22-.14-.13-1.74,1.7-3.4,3.49-5.07,5.26-.1.09.05.24.15.14C133.64,177.83,135.36,176.11,137,174.3Z"/><path class="cls-11" d="M139.46,168.21c-1.54,1.59-3,3.22-4.52,4.83.3-2.3,2.11-3.78,3.67-5.31.09-.09,0-.22-.14-.17a6,6,0,0,0-3.69,5.66c-1,1.06-2,2.11-3,3.12-.07.07,0,.19.11.13a34.27,34.27,0,0,0,7.87-8.07C139.83,168.25,139.58,168.09,139.46,168.21Z"/><path class="cls-11" d="M138.6,166c.11-.11,0-.32-.18-.21a90.57,90.57,0,0,0-6.77,6.38c-.09.09,0,.21.14.13A88.18,88.18,0,0,0,138.6,166Z"/><path class="cls-11" d="M133,168.74a.08.08,0,0,0,.08.12c1.66-.6,3-2.55,4.12-3.85a.12.12,0,1,0-.17-.16c-1.19,1.09-2.31,2.26-3.49,3.37,0,0,0-.06,0-.08-1.33-1.23-3.66-1.46-6.39-1.18a4.58,4.58,0,0,0,.82-4.94c-.05-.68-.16-1.37-.28-2.07C130,162,134,164.06,134,166.49c0,.09.12.08.13,0,.27-2.57-4.22-5-6.61-7.19-1.12-5.32-4.18-11-8.77-12.88-.27-.11-.64.15-.43.45l.56.78a28.72,28.72,0,0,0-8.48-5.9c-.33-.15-.7.26-.4.53,2.38,2.15,5.1,3.84,7.56,5.87-1.51,2.69-2.44,5.76-4,8.46a21.55,21.55,0,0,1-9.75,8.8,1,1,0,0,0-.19.15,12.63,12.63,0,0,1-2.54-1.34c-2-1.67-3.31-4.36-4.24-6.75-1.6-4.12-2.37-9.49.12-13.39a.8.8,0,0,0,0-.79s0,0,0-.06c4-1.75,8.24-2.43,12.26.35.16.12.35-.14.2-.27a11.44,11.44,0,0,0-12.38-2,47.38,47.38,0,0,0-10.54,5.4.62.62,0,0,0-1.17.26c0,.22,0,.43,0,.65-.34.29-.68.59-1,.9a.77.77,0,0,0,.77,1.26c.14,0,.27-.09.4-.13,1.23,9.56,7.24,19.18,16.19,22.88,9.39,3.9,22.54-3.75,31.71-4.2ZM87,149.08c2.44-1.17,4.67-3.19,7-4.44l.92-.49c-2.82,4.2-1.43,10.52.22,14.88.88,2.33,5.31,10.21,9,8.63a1.21,1.21,0,0,0,1-.1c6.42-3.51,12.52-11.12,13.19-18.78.62.55,1.23,1.12,1.81,1.74a45.86,45.86,0,0,1,7,10.16c-.9.9-1.67,1.95-2.52,2.9h0a36.14,36.14,0,0,0-2.68,2.86c-.2.22-.4.45-.61.66s.06.28.19.18c2.09-1.69,4.54-3.64,5.81-6.09,0,.13.08.26.11.39a.27.27,0,0,0-.26.33c.22,1.55-1.69,2.65-2.64,3.54-.3.28,0,.85.42.69a5.75,5.75,0,0,0,2.19-1.4c-.3,1.05-1.41,1.31-1.92,2.18a.36.36,0,0,0,0,.3c-6,1-13.16,3.76-16.26,3.84C95.86,171.41,89.92,159.91,87,149.08Z"/><path class="cls-11" d="M129.78,162.79a15.31,15.31,0,0,0-2,3.22.07.07,0,0,0,.11.07A15.13,15.13,0,0,0,130,163C130.09,162.83,129.9,162.66,129.78,162.79Z"/><path class="cls-11" d="M129.39,160.47c0,.13.17.18.21.05a9.6,9.6,0,0,1,1.61-3.11c0-.07,0-.16-.09-.09A8.52,8.52,0,0,0,129.39,160.47Z"/><path class="cls-11" d="M78.15,146a.07.07,0,0,0,.14,0c.69-2.33.53-4.82,1.24-7.19,1-3.19,3.52-5.67,5.84-7.92.24-.23-.09-.64-.36-.45C80.25,133.8,76.18,139.85,78.15,146Z"/><path class="cls-11" d="M206.63,114.49c-.07-.15-.33,0-.27.12,4,10.28,13,20.21,23.63,23.87.27.09.37-.3.17-.44C220.56,131.32,212.1,125.26,206.63,114.49Z"/><path class="cls-11" d="M226.77,140.85c-4.46-2.5-9.23-5-12.33-9.21,0,0-.07,0-.06,0,2.38,5,7,8.14,12.21,9.64A.25.25,0,0,0,226.77,140.85Z"/><path class="cls-11" d="M114.2,231.53c0,.05.09.05.09,0,.1-2.17-.69-4.69.3-6.72C113.57,226.65,114.35,229.31,114.2,231.53Z"/><path class="cls-11" d="M115.17,224.08a3.11,3.11,0,0,0-.58.73h0A2.18,2.18,0,0,1,115.17,224.08Z"/><path class="cls-11" d="M98.67,231.67c-2.9,3.17,1.92,5.93,4.67,6.17a.25.25,0,0,0,.11-.46c-2.34-1.14-6.59-2.7-3.87-5.87,2.07-2.43,5.89-3,8.76-1.92,0,0,0,0,0,0A9.34,9.34,0,0,0,98.67,231.67Z"/><path class="cls-11" d="M174.3,242.23c.18-.29-.29-.55-.47-.26-1.79,3,2,3.26,4.08,3.21a0,0,0,1,0,0-.09C176.25,245.07,172.69,244.76,174.3,242.23Z"/><path class="cls-11" d="M199.85,223.69a4.39,4.39,0,0,1-3.31,4.85c-.06,0,0,.09,0,.08a4,4,0,0,0,3.4-4.94A.06.06,0,0,0,199.85,223.69Z"/><path class="cls-11" d="M107.19,223.46a7.35,7.35,0,0,0,.75-.72,18.51,18.51,0,0,0,1.91,6.58c.15.27.5.06.45-.2-.49-2.67-.87-5.34-1.21-8,.24-.42.48-.87.72-1.34,2.46-4.72,7.11-2.71,10.71-1.35.1,0,.16-.11.1-.18-2.24-2.44-6.38-2.36-9.15-1-1.14.58-1.83,2.06-2.37,3.13a1,1,0,0,0-.08.14q-.27-2-.51-4.05a.4.4,0,0,0-.21-.35s-.15-.09-.23-.07c-2.1-3.06-9.45-5.59-11.1-8.79,0,0,0,0,0,0,1.41,3.12,8,6.67,10.77,9.13a.36.36,0,0,0,0,.1,36.63,36.63,0,0,0,.18,5.66c-2.88,3-7.12.86-11,.19-.24-.05-.34.32-.09.37C99.66,223.36,104.41,225.71,107.19,223.46Z"/><path class="cls-11" d="M195.26,236.32a10.89,10.89,0,0,1-7.47-.23l0,0c.1-.09,0-.27-.15-.19l-.12.09a6.41,6.41,0,0,1-.7-.45c2.19-2.15,3.53-5.33,5.34-7.75a.19.19,0,0,0-.28-.27c-.14.12-.26.26-.4.39-4.21.49-1.13-1.61-1.75-4.11a5.05,5.05,0,0,0-3.09-3.4,13.85,13.85,0,0,0-12.37,1,.11.11,0,0,0,.11.18c4.8-2.71,18.06-1.82,13.54,6.36a.37.37,0,0,0,.33.54,27.49,27.49,0,0,0,2.9-.2,18.08,18.08,0,0,0-1.52,1.82s0,0-.06,0a15.8,15.8,0,0,1-4,4.05,5.63,5.63,0,0,1-.73-2.26c-.24-2.18.91-3.94-1.75-4.78-.07,0-.11.09,0,.12,2.63,1.29.65,3.39,1,5.35a5.44,5.44,0,0,0,.78,2.08,42.87,42.87,0,0,1-5,2.63l-.46-.61a20.41,20.41,0,0,1-1.77-3.75c-.2-.43,1.41-1.38,1.63-1.92.47-1.14-.93-3.74-2-4.31-1.71-.9-3.2.21-4.49,1.33,0,0,0,.09.05.07,2.58-1.3,4.25-.53,5.1,2.12.41,1.26-1.44,1.19-1.42,2.25,0,1.82,1.73,3.46,2.71,5.13a45.59,45.59,0,0,0-4.52,2.38c-.13.08,0,.27.12.21,1.48-.77,3.06-1.45,4.64-2.14a3.19,3.19,0,0,1,.35,2.25.13.13,0,0,0,.24.09,2.29,2.29,0,0,0,.11-2.66,34.57,34.57,0,0,0,5-2.64,7.57,7.57,0,0,0,.74.87l0,0c-.1.16.12.38.27.26h0c.05,0,.09.1.14.14s.21.14.31.22l-.14.25a32.39,32.39,0,0,1-8,4.14c-1.89,0-3.77-.09-5.65-.22a.15.15,0,0,0-.15-.12c-.79,0-1.57,0-2.36,0-.49,0-1,0-1.47,0a2.29,2.29,0,0,0,.21-.23.26.26,0,0,0-.32-.4,12.27,12.27,0,0,0-1.11.64c-1.1,0-2.2,0-3.3-.1a10.9,10.9,0,0,1-1.42-.94c-2.21-1.79-.84-3.4,1.53-4a.49.49,0,0,0,.2-.83c-.62-.52-1-1.13-1.5-1.63,2.37-1.61,2.34-4.83-.64-6-.14-.06-.32.13-.18.24,2,1.55,2.47,4-.28,5.25a.53.53,0,0,0-.1,1,5.74,5.74,0,0,1,1.38,1.31c-1.57.46-3.5,1.45-2.85,3.34a5.14,5.14,0,0,0,1.35,2.05h-.11a0,0,0,0,0,0,0c-2.73-1.15-5.41-2.34-8.22-3.26a12.21,12.21,0,0,1-2.79-1.88,6,6,0,0,1-1-1.24.26.26,0,0,0,.06-.25c-.46-1.76-.83-3.48-1.14-5.2,2-.21,3.68-3,5.08-5.65a3.49,3.49,0,0,0-.1.86l-.6.6c-.13.13.06.31.2.2l.46-.38c0,.1,0,.19,0,.29s.18.07.17,0,0-.29,0-.43a94.54,94.54,0,0,1,9.15-6.87c.12-.08,0-.29-.11-.24-3.5,1.25-6.36,3.92-9,6.53a2.58,2.58,0,0,1,.17-.62s.07,0,.1,0c.86-.88,1.7-1.82,2.52-2.78a19.52,19.52,0,0,1,2.49-1.84.07.07,0,0,0-.06-.12,12.34,12.34,0,0,0-2,1.4c.24-.29.5-.58.73-.87a.14.14,0,0,0-.2-.2,23.82,23.82,0,0,0-2.18,2.1,5.79,5.79,0,0,0-1.08.94c.42-.81.82-1.57,1.2-2.17.87-.66,1.77-1.3,2.6-2,.11-.09,0-.2-.06-.25,1.41-.93,2.84-1.89,3.47-3.47.7-1.79-1.83-2.27-3.24-2.22,0-.06,0-.13-.06-.13-8.33-.52-17.33-2-25.68-1.27.66-1,1.3-1.92,2-2.84.18-.24-.16-.57-.34-.33-.81,1.05-1.6,2.13-2.36,3.22h-.17c-.09,0-.12.15,0,.17h.06c-.51.75-1,1.5-1.5,2.27a.15.15,0,0,0,.24.18c.26-.28.5-.58.74-.88a2.38,2.38,0,0,0,.78,2.07c1.77,1.73,3.64,2.67,5,4.33a8.87,8.87,0,0,0-1.12-.72c-.41-.36-.82-.7-1.24-1-.14-.11-.36.11-.24.25a2.52,2.52,0,0,0,.21.25,5.38,5.38,0,0,0-.69-.18.21.21,0,0,0-.15.38,31,31,0,0,1,3.36,2.52c.28.27.54.55.81.79,0,0,0,0,.06,0l.51.49c.11.33.21.66.32,1a9.5,9.5,0,0,0-5.23-3.45c-.16,0-.33.19-.17.31l.43.3a.27.27,0,0,0-.12.44c1.4,1.24,2.93,2.3,4.27,3.64a.16.16,0,0,0,.25-.2,13.65,13.65,0,0,0-1.28-1.69l.46.38a17.2,17.2,0,0,1,2.16,2.42c1.11,2.77,2.78,5,6.42,3.81l-.45,3c-.85,2.07-3,4.19-4.3,5.42a22.3,22.3,0,0,1-7,4.63c-.07,0,0,.15,0,.12a12.62,12.62,0,0,0,1.21-.47.15.15,0,0,0,.19.2,23.32,23.32,0,0,0,10.2-6.74.13.13,0,0,0,.11-.08.25.25,0,0,0,0-.07c.08-.1.17-.17.25-.26a.14.14,0,0,0,0-.21,12.72,12.72,0,0,0,1.17-3.56,13.81,13.81,0,0,0,.37,1.44,6.16,6.16,0,0,0,1.49,3.81c1.21,1.56,3.5,3.47,5.61,3.31a.25.25,0,0,0,.22-.27c1.94.82,3.87,1.65,5.89,2.3a.13.13,0,0,0,.09.17c.41.12.81.21,1.22.3a6.64,6.64,0,0,0,3.33,1.16s0,0,.06,0a19,19,0,0,0-1.95,2,.26.26,0,0,0,0,.36c-4.51,2.68-8.84,4.57-14.52,4.16-4.61-.33-10-1.39-12.12-5.75a13.93,13.93,0,0,0,3.41,2c.09,0,.15-.12.06-.16A25.31,25.31,0,0,1,137,242a7,7,0,0,1-.33-1s-.07-.06-.12-.08l.64-.17a.05.05,0,1,0,0-.1,24.29,24.29,0,0,1-13.5-1.17c1.18-2.75,2.27-11.11,5-4.78.08.17.36.1.29-.09-1.6-5-3.76-2.17-5,1.25-.4,1.1-.71,2.23-1,3.36a31.54,31.54,0,0,1-4.72-2.26.05.05,0,0,0,0-.08c-.4-.34-.78-.7-1.17-1.06a43.89,43.89,0,0,0,3.1-3.76,1.77,1.77,0,0,0,1.4-.16c.09,0,.17,0,.35-.16a.06.06,0,0,0-.06-.11.35.35,0,0,1-.13,0,.19.19,0,0,0-.13-.17,1.63,1.63,0,0,0-.37-.08h-.44a.28.28,0,0,0,0-.13c3.15-4.07,6.54-8,9.59-3.85.05.07.2,0,.16-.06a4,4,0,0,0-1.11-1.57,1.39,1.39,0,0,0,.3,0,.15.15,0,0,0,.08-.28c-.15-.17-.29-.34-.43-.52a1.46,1.46,0,0,0,0-.42.21.21,0,0,0,.11,0,.31.31,0,0,0,0-.53c-1.11-.68-1.82.74-.65,1.27,0,0,0,0,0,0a1.93,1.93,0,0,0,.13.21c-2.28-1.11-5.65,2.21-8.64,5.62l0,0a1.22,1.22,0,0,0-.25.32c-1.25,1.44-2.42,2.87-3.4,4a37.17,37.17,0,0,1-5.11-6s0,0,0,0a27.17,27.17,0,0,0,5,6.14,9.21,9.21,0,0,1-1.77,1.64.09.09,0,0,0,.07.16,4.69,4.69,0,0,0,1.84-1.17,11.79,11.79,0,0,0,5.56,4c-1.43.89-4.36-.13-5.66-.51-2.79-.82-5.51-.79-7.33,1.72-.09.12.09.29.21.2,3.21-2.49,5.81-1.49,9.34-.63a5,5,0,0,0,4.13-.53,25.45,25.45,0,0,0,13.53.44s0,0,0,0a5.69,5.69,0,0,0,0,1.6c-.65-.31-1.41-.46-2-.7s-.95.6-.53.94a4.92,4.92,0,0,0,2.88,1c1.31,3.3,5.83,4.78,9.24,5.55,7.93,1.81,15.12-.58,20.85-6.27a.3.3,0,0,0-.34-.48,16.61,16.61,0,0,0,1.8-1.43c2.33.24,4.65.55,7,.63-.25.06-.49.13-.75.18-.06,0,0,.11,0,.1l1.33-.26a19.49,19.49,0,0,0,5.95-.72c.32-.09.17-.54-.15-.49-.72.11-1.44.18-2.15.22a25.29,25.29,0,0,0,6.76-3.51s0,0,0,.06,0,0,0-.06c.27-.19.52-.4.77-.61,2.53,1.69,5.93,1.3,8.51-.07C195.66,236.6,195.49,236.25,195.26,236.32Zm-9.42-1.83a15,15,0,0,0,2-1.79l-1.49,2.4A5.15,5.15,0,0,1,185.84,234.49ZM152,223.66a6.59,6.59,0,0,1,1.26-2.39c-.3.62-.59,1.23-.9,1.84A5.21,5.21,0,0,1,152,223.66Zm-11,.08c-.1-.27-.18-.56-.26-.84a.16.16,0,0,0,.08-.24c-.1-.2-.22-.4-.33-.61l-.39-1.53a.16.16,0,0,0,.07-.17,26.64,26.64,0,0,0-.74-3.15c-.06-.22-.45-.24-.48,0s0,.27,0,.4c-1.88-2.84-5.8-3.7-6.63-7.14a.13.13,0,0,0-.12-.1l.27-.36a116.16,116.16,0,0,0,25.4,1.16.3.3,0,0,0,.1.51c.83.22,4,.34,2.51,1.85a23.26,23.26,0,0,1-2.43,2,12.87,12.87,0,0,0-3,2.51c-.19.27-.36.57-.53.86a7.12,7.12,0,0,0-2.9,5.37h0c-.15.21-.3.41-.46.61.17-3,1.77-5.58,2.23-8.55,0-.1-.12-.17-.17-.07-1.43,2.75-2.73,5.69-2.25,8.83-.2.23-.39.47-.61.69a3.14,3.14,0,0,1-2,1c-.25-1.58-.45-3.17-.59-4.83a.29.29,0,0,0-.06-.11l-.12-1.27a.08.08,0,0,0-.15,0c0,.42,0,.83-.07,1.24a.26.26,0,0,0-.06.14l0,.71v0a.08.08,0,1,0-.15,0c0,1.23,0,2.46,0,3.7,0,.17,0,.35,0,.52h-.27l0,0a29.4,29.4,0,0,1,.17-3.16c0-.06-.09-.09-.11,0-.2,1-.38,2-.54,3C144,226.21,141.91,226.41,140.94,223.74Zm4.91,9.81-.22.18a14.83,14.83,0,0,0,1.06-6l.24.18A30.8,30.8,0,0,1,145.85,233.55ZM138.31,239a24.72,24.72,0,0,0,3.88-3.09,21.26,21.26,0,0,0,3.26-3.91c-.1.66-.2,1.32-.31,2a.14.14,0,0,0,0,.13A42,42,0,0,1,138.31,239Zm-21.56-2.9a1.14,1.14,0,0,0,.11-.11c.28.23.55.49.84.7Zm49.19,5.18-.3-.15,1.06,0c-.21.15-.42.3-.62.46A.31.31,0,0,0,165.94,241.3Zm20.57-4.58a1,1,0,0,0,.1-.17l.07,0Z"/><path class="cls-12" d="M243.09,142.73c-3.14-1.82-7.68-2.21-11.13-3.27-5.67-1.75-10.86-4.53-16.44-6.44-7.88-2.69-16.53-1.93-24.68-1.2a53.1,53.1,0,0,0-11.77,2.31c-3,1-5.67,2.85-8.54,4.2-3.31,1.56-6.48,1.71-10.07,2.1l-10,1.11c-3.33-.37-6.66-.75-10-1.11-3.59-.39-6.76-.54-10.07-2.1-2.87-1.35-5.51-3.19-8.54-4.2a53.1,53.1,0,0,0-11.77-2.31c-8.15-.73-16.8-1.49-24.68,1.2-5.57,1.91-10.77,4.69-16.44,6.44-3.45,1.06-8,1.45-11.13,3.27,0,0-4.82,5.67-1.37,16.73.06.18,3.53.79,3.84,1A7.53,7.53,0,0,1,63,163a16.32,16.32,0,0,1,2.43,6.53c1.29,7.66,4.5,13.09,9.29,19.18C77.35,192,82,194.93,85.59,197c14.4,8.13,32.41,5.1,42.56-8.18,4.87-6.36,6.38-13.58,8.75-21.06,1.56-4.93,2.91-13.07,8.71-14.88,12.1-3.75,15.49,5.62,18.43,14.88,2.37,7.48,3.88,14.7,8.74,21.06,10.15,13.28,28.16,16.31,42.56,8.18,3.61-2,8.24-5,10.83-8.31,4.79-6.09,8-11.52,9.29-19.18a16.47,16.47,0,0,1,2.43-6.53,7.53,7.53,0,0,1,2.73-2.53c.32-.17,3.78-.78,3.84-1C247.9,148.4,243.09,142.74,243.09,142.73ZM119.32,187.89a34.32,34.32,0,0,1-13.94,6s-24.67,3.52-33.6-27.37c0,0-3.4-18.52,16.59-24.47a52.8,52.8,0,0,1,13.46-1.88c8.8-.27,17.46,2,24.43,7.6C139.42,158.36,130.43,179.72,119.32,187.89Zm109.83-21.35c-8.93,30.89-33.59,27.38-33.6,27.37a34.32,34.32,0,0,1-13.94-6c-11.11-8.17-20.1-29.53-6.94-40.1,7-5.61,15.63-7.87,24.43-7.6a52.74,52.74,0,0,1,13.46,1.88C232.55,148,229.15,166.54,229.15,166.54Z"/></g></g></svg>